<svg width="20" height="20" viewBox="0 0 20 20" fill="none" xmlns="http://www.w3.org/2000/svg">
<path fill-rule="evenodd" clip-rule="evenodd" d="M10.0003 1.66666C5.39795 1.66666 1.66699 5.39762 1.66699 9.99999C1.66699 14.6024 5.39795 18.3333 10.0003 18.3333C14.6027 18.3333 18.3337 14.6024 18.3337 9.99999C18.3337 7.78985 17.4557 5.67024 15.8929 4.10743C14.3301 2.54463 12.2105 1.66666 10.0003 1.66666ZM10.0003 4.16666C11.381 4.16666 12.5003 5.28594 12.5003 6.66666C12.5003 8.04737 11.381 9.16666 10.0003 9.16666C8.61961 9.16666 7.50033 8.04737 7.50033 6.66666C7.50033 5.28594 8.61961 4.16666 10.0003 4.16666ZM10.0004 15.8223C11.8463 15.8223 13.5832 14.9486 14.6837 13.4667C14.8542 13.2174 14.8765 12.8954 14.742 12.625L14.5504 12.2333C14.131 11.3775 13.2617 10.8346 12.3087 10.8333H7.69203C6.72546 10.8344 5.84609 11.3925 5.43369 12.2667L5.25869 12.6333C5.12745 12.9015 5.1497 13.2194 5.31702 13.4667C6.41749 14.9486 8.15446 15.8223 10.0004 15.8223Z" fill="#00D0BE"/>
</svg>
