<svg width="20" height="20" viewBox="0 0 20 20" fill="none" xmlns="http://www.w3.org/2000/svg">
<path fill-rule="evenodd" clip-rule="evenodd" d="M16.4247 13.0917L15.733 12.4C15.264 11.9316 15.0003 11.2961 14.9997 10.6333V8.33332C14.9997 7.25147 14.6488 6.1988 13.9997 5.33332L13.2497 4.33332C12.7775 3.70381 12.0366 3.33332 11.2497 3.33332H10.833V2.08332C10.833 1.8532 10.6465 1.66666 10.4163 1.66666H9.58301C9.35289 1.66666 9.16634 1.8532 9.16634 2.08332V3.33332H8.74967C7.96278 3.33332 7.22181 3.70381 6.74967 4.33332L5.99967 5.33332C5.35056 6.1988 4.99967 7.25147 4.99967 8.33332V10.6333C4.99909 11.2961 4.73532 11.9316 4.26634 12.4L3.57467 13.0917C3.42072 13.2469 3.33393 13.4564 3.33301 13.675V14.1667C3.33301 14.6269 3.7061 15 4.16634 15H15.833C16.2932 15 16.6663 14.6269 16.6663 14.1667V13.675C16.6654 13.4564 16.5786 13.2469 16.4247 13.0917ZM13.333 13.3333H6.66634V8.33332C6.66634 7.61209 6.90027 6.91031 7.33301 6.33332L8.08301 5.33332C8.24039 5.12348 8.48738 4.99999 8.74968 4.99999H11.2497C11.512 4.99999 11.759 5.12348 11.9163 5.33332L12.6663 6.33332C13.0991 6.91031 13.333 7.61209 13.333 8.33332V13.3333ZM9.99967 18.3333C10.9201 18.3333 11.6663 17.5871 11.6663 16.6667H8.33301C8.33301 17.5871 9.0792 18.3333 9.99967 18.3333Z" fill="#00D0BE"/>
</svg>
