<svg width="20" height="20" viewBox="0 0 20 20" fill="none" xmlns="http://www.w3.org/2000/svg">
<path fill-rule="evenodd" clip-rule="evenodd" d="M9.16667 3.33333V16.6667C9.16667 17.1269 8.79357 17.5 8.33333 17.5H3.33333C2.8731 17.5 2.5 17.1269 2.5 16.6667V3.33333C2.5 2.8731 2.8731 2.5 3.33333 2.5H8.33333C8.79357 2.5 9.16667 2.8731 9.16667 3.33333ZM11.6667 7.5H16.6667C17.1269 7.5 17.5 7.1269 17.5 6.66667V3.33333C17.5 2.8731 17.1269 2.5 16.6667 2.5H11.6667C11.2064 2.5 10.8333 2.8731 10.8333 3.33333V6.66667C10.8333 7.1269 11.2064 7.5 11.6667 7.5ZM16.6667 17.5H11.6667C11.2064 17.5 10.8333 17.1269 10.8333 16.6667V10C10.8333 9.53976 11.2064 9.16667 11.6667 9.16667H16.6667C17.1269 9.16667 17.5 9.53976 17.5 10V16.6667C17.5 17.1269 17.1269 17.5 16.6667 17.5Z" fill="white"/>
</svg>
