<svg width="20" height="20" viewBox="0 0 20 20" fill="none" xmlns="http://www.w3.org/2000/svg">
<path fill-rule="evenodd" clip-rule="evenodd" d="M16.8332 11.7284L17.4999 12.2795C17.8162 12.5366 17.9008 12.985 17.6999 13.34L16.7332 15.01C16.5333 15.3352 16.1387 15.483 15.7749 15.369L14.9416 15.0684C14.4498 14.8843 13.9001 14.943 13.4582 15.2271C13.2623 15.3627 13.0562 15.4827 12.8416 15.5861C12.3727 15.8271 12.0451 16.276 11.9582 16.7969L11.8166 17.6319C11.7505 18.0402 11.3961 18.3386 10.9832 18.3333H9.06657C8.65374 18.3386 8.29926 18.0402 8.23324 17.6319L8.09157 16.7969C8.00472 16.276 7.67715 15.8271 7.20824 15.5861C6.99365 15.4827 6.78747 15.3627 6.59157 15.2271C6.14966 14.943 5.60002 14.8843 5.10824 15.0684L4.2749 15.369C3.89637 15.5099 3.47146 15.3586 3.26657 15.01L2.2999 13.34C2.09901 12.985 2.18359 12.5366 2.4999 12.2795L3.16657 11.7284C3.57078 11.3922 3.79313 10.8847 3.76657 10.359V9.99999V9.64094C3.79313 9.11524 3.57078 8.60776 3.16657 8.27155L2.4999 7.72045C2.18359 7.46342 2.09901 7.01497 2.2999 6.66L3.26657 4.99001C3.46993 4.64936 3.88453 4.49925 4.25824 4.63096L5.09157 4.93156C5.58335 5.11573 6.13299 5.05694 6.5749 4.77291C6.7708 4.6373 6.97699 4.51726 7.19157 4.41386C7.64769 4.16502 7.96198 3.71736 8.04157 3.20312L8.18324 2.36812C8.24926 1.95976 8.60374 1.6614 9.01657 1.66673H10.9332C11.3461 1.6614 11.7005 1.95976 11.7666 2.36812L11.9082 3.20312C11.9951 3.72393 12.3227 4.17291 12.7916 4.41386C13.0062 4.51726 13.2123 4.6373 13.4082 4.77291C13.8501 5.05694 14.3998 5.11573 14.8916 4.93156L15.7249 4.63096C16.1034 4.49004 16.5283 4.64134 16.7332 4.99001L17.6999 6.66C17.9008 7.01497 17.8162 7.46342 17.4999 7.72045L16.8332 8.27155C16.429 8.60776 16.2067 9.11524 16.2332 9.64094V9.99999V10.359C16.2067 10.8847 16.429 11.3922 16.8332 11.7284ZM7.4999 9.99999C7.4999 11.3835 8.61919 12.505 9.9999 12.505C10.6629 12.505 11.2988 12.2411 11.7677 11.7713C12.2365 11.3015 12.4999 10.6644 12.4999 9.99999C12.4999 8.61652 11.3806 7.495 9.9999 7.495C8.61919 7.495 7.4999 8.61652 7.4999 9.99999Z" fill="white"/>
</svg>
