<svg width="20" height="16" viewBox="0 0 20 16" fill="none" xmlns="http://www.w3.org/2000/svg">
<path fill-rule="evenodd" clip-rule="evenodd" d="M20 2C20 0.89543 19.1046 0 18 0H2C0.895431 0 0 0.89543 0 2V14C0 15.1046 0.895431 16 2 16H18C19.1046 16 20 15.1046 20 14V2ZM8.00001 12.5C8.00001 12.7761 7.77615 13 7.50001 13H4.50001C4.22387 13 4.00001 12.7761 4.00001 12.5V11.5C4.00001 11.2239 4.22387 11 4.50001 11H7.50001C7.77615 11 8.00001 11.2239 8.00001 11.5V12.5ZM17.5 8C17.7761 8 18 7.77614 18 7.5V5.5C18 5.22386 17.7761 5 17.5 5H2.49999C2.22385 5 1.99999 5.22386 1.99999 5.5V7.5C1.99999 7.77614 2.22385 8 2.49999 8H17.5Z" fill="#98A0AA"/>
</svg>
