<svg width="20" height="20" viewBox="0 0 20 20" fill="none" xmlns="http://www.w3.org/2000/svg">
<path fill-rule="evenodd" clip-rule="evenodd" d="M15.8333 6.66667H15.3833C15.6771 6.16027 15.8323 5.58543 15.8333 5C15.8333 3.61929 14.714 2.5 13.3333 2.5C11.981 2.66552 10.766 3.40669 10 4.53333C9.23399 3.40669 8.01896 2.66552 6.66667 2.5C5.28595 2.5 4.16667 3.61929 4.16667 5C4.16771 5.58543 4.32291 6.16027 4.61667 6.66667H4.16667C3.24619 6.66667 2.5 7.41286 2.5 8.33333V10.8333C2.5 11.2936 2.8731 11.6667 3.33333 11.6667H4.16667V15.8333C4.16667 16.7538 4.91286 17.5 5.83333 17.5H14.1667C15.0871 17.5 15.8333 16.7538 15.8333 15.8333V11.6667H16.6667C17.1269 11.6667 17.5 11.2936 17.5 10.8333V8.33333C17.5 7.41286 16.7538 6.66667 15.8333 6.66667ZM13.3333 4.16667C13.7936 4.16667 14.1667 4.53976 14.1667 5C14.1675 5.55438 13.8926 6.07288 13.4333 6.38333C13.1574 6.56874 12.8324 6.66741 12.5 6.66667H10.8333C10.8333 5.75833 12.425 4.16667 13.3333 4.16667ZM6.66667 4.16667C6.20643 4.16667 5.83333 4.53976 5.83333 5C5.83333 5.92047 6.57952 6.66667 7.5 6.66667H9.16667C9.16667 5.75833 7.575 4.16667 6.66667 4.16667ZM4.16667 8.33333H9.16667V10H4.16667V8.33333ZM9.16667 15.8333V11.6667H5.83333V15.8333H9.16667ZM14.1667 15.8333H10.8333V11.6667H14.1667V15.8333ZM10.8333 10H15.8333V8.33333H10.8333V10Z" fill="#98A0AA"/>
</svg>
