<svg width="20" height="20" viewBox="0 0 20 20" fill="none" xmlns="http://www.w3.org/2000/svg">
<path d="M10 0C8.02219 0 6.08879 0.58649 4.4443 1.6853C2.79981 2.78412 1.51809 4.3459 0.761209 6.17316C0.00433283 8.00043 -0.1937 10.0111 0.192152 11.9509C0.578004 13.8907 1.53041 15.6725 2.92894 17.0711C4.32746 18.4696 6.10929 19.422 8.0491 19.8078C9.98891 20.1937 11.9996 19.9957 13.8268 19.2388C15.6541 18.4819 17.2159 17.2002 18.3147 15.5557C19.4135 13.9112 20 11.9778 20 10C20 7.34783 18.9464 4.8043 17.0711 2.92893C15.1957 1.05357 12.6522 0 10 0V0ZM10.756 13.976C10.76 14.618 10.4 15 9.77 15C9.14 15 8.72 14.632 8.718 14.094C8.718 13.348 9.052 12.976 9.718 12.956C10.26 12.94 10.824 13.272 10.756 13.976ZM12.156 9.36C11.872 9.58 11.574 9.78 11.288 9.996C11.0808 10.1318 10.9129 10.3197 10.8013 10.5408C10.6896 10.762 10.6382 11.0086 10.652 11.256C10.6591 11.4345 10.6063 11.6103 10.5019 11.7553C10.3975 11.9002 10.2476 12.0061 10.076 12.056C9.89336 12.1263 9.69256 12.134 9.50507 12.0779C9.31759 12.0218 9.15402 11.9051 9.04 11.746C8.96529 11.6206 8.92461 11.4779 8.922 11.332C8.90756 10.88 9.00367 10.4314 9.20199 10.025C9.40031 9.61857 9.69484 9.26673 10.06 9C10.381 8.75568 10.6838 8.4883 10.966 8.2C11.1005 8.04154 11.1823 7.8451 11.2 7.638C11.246 7.072 10.882 6.708 10.296 6.67C9.588 6.624 8.992 6.808 8.578 7.434C8.49121 7.58155 8.3613 7.69899 8.20576 7.7705C8.05022 7.84201 7.87651 7.86417 7.708 7.834C7.108 7.734 6.85 7.246 7.096 6.684C7.35353 6.13628 7.79623 5.69711 8.346 5.444C8.9107 5.16646 9.52897 5.01496 10.158 5C10.5138 5.03716 10.8671 5.09526 11.216 5.174C12.282 5.476 12.916 6.328 12.996 7.46C13.0346 7.82272 12.9771 8.18921 12.8293 8.52269C12.6815 8.85618 12.4486 9.14494 12.154 9.36H12.156Z" fill="white"/>
</svg>
