<svg width="20" height="20" viewBox="0 0 20 20" fill="none" xmlns="http://www.w3.org/2000/svg">
<path fill-rule="evenodd" clip-rule="evenodd" d="M10.83 5.00002C10.83 6.84097 9.33813 8.33335 7.49785 8.33335C5.65758 8.33335 4.16574 6.84097 4.16574 5.00002C4.16574 3.15907 5.65758 1.66669 7.49785 1.66669C9.33813 1.66669 10.83 3.15907 10.83 5.00002ZM9.16391 5.00002C9.16391 4.07955 8.41799 3.33335 7.49785 3.33335C6.57772 3.33335 5.8318 4.07955 5.8318 5.00002C5.8318 5.9205 6.57772 6.66669 7.49785 6.66669C8.41799 6.66669 9.16391 5.9205 9.16391 5.00002ZM13.1208 12.0167L14.1621 10.975V8.33335C14.1621 7.87312 13.7891 7.50002 13.3291 7.50002C12.869 7.50002 12.496 7.87312 12.496 8.33335V11.25C12.7632 11.4512 12.9776 11.7143 13.1208 12.0167ZM16.6945 9.99519C16.9166 9.99519 17.1295 10.0839 17.2859 10.2417H17.2526C17.4103 10.3982 17.499 10.6112 17.499 10.8334C17.499 11.0556 17.4103 11.2685 17.2526 11.425L12.621 16.0584C12.2291 16.4481 11.699 16.6668 11.1465 16.6667H7.74776C7.52922 16.6676 7.3198 16.7544 7.16464 16.9084L5.98174 18.0917C5.65683 18.4148 5.13208 18.4148 4.80717 18.0917L2.74126 16.025C2.41828 15.7 2.41828 15.175 2.74126 14.85L5.09873 12.425C5.67487 11.8727 6.46141 11.5963 7.25628 11.6667H11.1632C11.829 11.6474 12.403 12.1319 12.496 12.7917C12.5751 13.4614 12.1055 14.0718 11.4381 14.1667H11.2465H7.91437C7.68433 14.1667 7.49785 14.3532 7.49785 14.5834C7.49785 14.8135 7.68433 15 7.91437 15H11.2465C12.368 15.0007 13.2887 14.1129 13.3291 12.9917L16.103 10.2417C16.2594 10.0839 16.4724 9.99519 16.6945 9.99519Z" fill="white"/>
</svg>
