<svg width="20" height="20" viewBox="0 0 20 20" fill="none" xmlns="http://www.w3.org/2000/svg">
<path fill-rule="evenodd" clip-rule="evenodd" d="M14.9997 8.33335V6.66669C14.9997 3.90526 12.7611 1.66669 9.99967 1.66669C7.23825 1.66669 4.99967 3.90526 4.99967 6.66669V8.33335C4.0792 8.33335 3.33301 9.07955 3.33301 10V16.6667C3.33301 17.5872 4.0792 18.3334 4.99967 18.3334H14.9997C15.9201 18.3334 16.6663 17.5872 16.6663 16.6667V10C16.6663 9.07955 15.9201 8.33335 14.9997 8.33335ZM6.66634 6.66669C6.66634 4.82574 8.15873 3.33335 9.99967 3.33335C11.8406 3.33335 13.333 4.82574 13.333 6.66669V8.33335H6.66634V6.66669ZM10.833 15C11.2932 15 11.6663 14.6269 11.6663 14.1667V12.5C11.6663 12.0398 11.2932 11.6667 10.833 11.6667H9.16634C8.7061 11.6667 8.33301 12.0398 8.33301 12.5V14.1667C8.33301 14.6269 8.7061 15 9.16634 15H10.833Z" fill="#98A0AA"/>
</svg>
