<svg width="20" height="20" viewBox="0 0 20 20" fill="none" xmlns="http://www.w3.org/2000/svg">
<path fill-rule="evenodd" clip-rule="evenodd" d="M16.8332 11.7285L17.4999 12.2796C17.8162 12.5366 17.9008 12.985 17.6999 13.34L16.7332 15.01C16.5333 15.3352 16.1387 15.4831 15.7749 15.369L14.9416 15.0684C14.4498 14.8843 13.9001 14.9431 13.4582 15.2271C13.2623 15.3627 13.0562 15.4828 12.8416 15.5861C12.3727 15.8271 12.0451 16.2761 11.9582 16.7969L11.8166 17.6319C11.7505 18.0402 11.3961 18.3386 10.9832 18.3333H9.06657C8.65374 18.3386 8.29926 18.0402 8.23324 17.6319L8.09157 16.7969C8.00472 16.2761 7.67715 15.8271 7.20824 15.5861C6.99365 15.4828 6.78747 15.3627 6.59157 15.2271C6.14966 14.9431 5.60002 14.8843 5.10824 15.0684L4.2749 15.369C3.89637 15.51 3.47146 15.3587 3.26657 15.01L2.2999 13.34C2.09901 12.985 2.18359 12.5366 2.4999 12.2796L3.16657 11.7285C3.57078 11.3923 3.79313 10.8848 3.76657 10.3591V10V9.64097C3.79313 9.11527 3.57078 8.60779 3.16657 8.27158L2.4999 7.72048C2.18359 7.46345 2.09901 7.015 2.2999 6.66004L3.26657 4.99004C3.46993 4.64939 3.88453 4.49928 4.25824 4.63099L5.09157 4.93159C5.58335 5.11576 6.13299 5.05697 6.5749 4.77294C6.7708 4.63734 6.97699 4.51729 7.19157 4.4139C7.64769 4.16505 7.96198 3.71739 8.04157 3.20315L8.18324 2.36815C8.24926 1.95979 8.60374 1.66143 9.01657 1.66676H10.9332C11.3461 1.66143 11.7005 1.95979 11.7666 2.36815L11.9082 3.20315C11.9951 3.72397 12.3227 4.17294 12.7916 4.4139C13.0062 4.51729 13.2123 4.63734 13.4082 4.77294C13.8501 5.05697 14.3998 5.11576 14.8916 4.93159L15.7249 4.63099C16.1034 4.49007 16.5283 4.64137 16.7332 4.99004L17.6999 6.66004C17.9008 7.015 17.8162 7.46345 17.4999 7.72048L16.8332 8.27158C16.429 8.60779 16.2067 9.11527 16.2332 9.64097V10V10.3591C16.2067 10.8848 16.429 11.3923 16.8332 11.7285ZM7.49992 10C7.49992 11.3835 8.6192 12.505 9.99992 12.505C10.663 12.505 11.2988 12.2411 11.7677 11.7713C12.2365 11.3015 12.4999 10.6644 12.4999 10C12.4999 8.61655 11.3806 7.49503 9.99992 7.49503C8.6192 7.49503 7.49992 8.61655 7.49992 10Z" fill="#98A0AA"/>
</svg>
