<svg width="20" height="20" viewBox="0 0 20 20" fill="none" xmlns="http://www.w3.org/2000/svg">
<path fill-rule="evenodd" clip-rule="evenodd" d="M5.00124 3.74668C5.00124 2.59793 5.93429 1.66669 7.08527 1.66669C8.23625 1.66669 9.16931 2.59793 9.16931 3.74668C9.16931 4.89542 8.23625 5.82666 7.08527 5.82666C6.53255 5.82666 6.00247 5.60752 5.61164 5.21745C5.2208 4.82738 5.00124 4.29832 5.00124 3.74668ZM11.5785 10.4442L10.7448 8.86344C10.3266 8.03466 9.48211 7.5059 8.55244 7.49065H5.61812C4.67341 7.49036 3.80916 8.02142 3.38404 8.86344L2.59211 10.4442C2.46209 10.7018 2.47494 11.0081 2.62609 11.2539C2.77723 11.4996 3.0451 11.6498 3.33402 11.6506H10.8365C11.1255 11.6498 11.3933 11.4996 11.5445 11.2539C11.6956 11.0081 11.7085 10.7018 11.5785 10.4442ZM15.0046 3.74667C15.0046 4.89542 14.0715 5.82666 12.9205 5.82666C12.3671 5.82889 11.8358 5.61046 11.4445 5.2199C11.0531 4.82935 10.8343 4.299 10.8365 3.74667C10.8365 2.59793 11.7696 1.66669 12.9205 1.66669C14.0715 1.66669 15.0046 2.59793 15.0046 3.74667ZM17.4138 10.4442L16.6218 8.86344C16.1967 8.02142 15.3325 7.49036 14.3877 7.49065H11.8869C12.0394 7.68872 12.1734 7.90038 12.287 8.12297L13.079 9.69544C13.3804 10.3052 13.4196 11.0114 13.1873 11.6506H16.6718C16.9608 11.6498 17.2286 11.4996 17.3798 11.2539C17.5309 11.0081 17.5438 10.7018 17.4138 10.4442ZM11.345 13.3146H14.5878C14.7069 13.3031 14.8256 13.3412 14.9155 13.42C15.0055 13.4988 15.0589 13.6112 15.0629 13.7306V16.9671C15.0692 17.1376 14.9684 17.294 14.8103 17.359C14.6521 17.4239 14.4702 17.3838 14.3544 17.2583L13.5207 16.4263C12.0608 18.0295 9.83002 18.6914 7.7297 18.1446C5.62938 17.5979 4.0067 15.9327 3.51738 13.8221C3.49422 13.6991 3.52452 13.5721 3.60074 13.4727C3.67856 13.3724 3.79874 13.314 3.92585 13.3146H4.75946C4.93586 13.3099 5.09613 13.4165 5.1596 13.5809C5.56894 15.0416 6.74249 16.1643 8.22216 16.5105C9.70184 16.8568 11.2531 16.3718 12.2703 15.2448L11.0532 14.0218C10.9365 13.903 10.902 13.7261 10.9655 13.5722C11.0289 13.4183 11.1783 13.317 11.345 13.3146Z" fill="#98A0AA"/>
</svg>
