<svg width="20" height="20" viewBox="0 0 20 20" fill="none" xmlns="http://www.w3.org/2000/svg">
<path fill-rule="evenodd" clip-rule="evenodd" d="M17.5 8.32123C17.5 7.39963 16.7538 6.65254 15.8333 6.65254H12.875C13.1717 6.14633 13.3298 5.57075 13.3333 4.98385H15.8333C15.8333 4.06226 15.0871 3.31516 14.1667 3.31516H12.875C12.2766 2.29398 11.1825 1.66669 10 1.66669C8.81746 1.66669 7.72343 2.29398 7.125 3.31516H5C3.61929 3.31516 2.5 4.43581 2.5 5.81819V16.6647C2.5 17.5863 3.24619 18.3334 4.16667 18.3334H15.8333C16.7538 18.3334 17.5 17.5863 17.5 16.6647V8.32123ZM10 3.31516C10.9205 3.31516 11.6667 4.06226 11.6667 4.98385C11.6667 5.90544 10.9205 6.65254 10 6.65254C9.07952 6.65254 8.33333 5.90544 8.33333 4.98385C8.33333 4.06226 9.07952 3.31516 10 3.31516ZM5 4.98385C4.53976 4.98385 4.16667 5.3574 4.16667 5.81819C4.16667 6.27899 4.53976 6.65254 5 6.65254H7.125C6.82833 6.14633 6.67024 5.57075 6.66667 4.98385H5ZM15.8333 14.996H10C9.53976 14.996 9.16667 14.6224 9.16667 14.1616V10.8243C9.16667 10.3635 9.53976 9.98991 10 9.98991H15.8333V14.996ZM11.25 13.3273C11.0199 13.3273 10.8333 13.1405 10.8333 12.9101V12.0758C10.8333 11.8454 11.0199 11.6586 11.25 11.6586H12.0833C12.3135 11.6586 12.5 11.8454 12.5 12.0758V12.9101C12.5 13.1405 12.3135 13.3273 12.0833 13.3273H11.25Z" fill="white"/>
</svg>
