<svg width="12" height="12" viewBox="0 0 12 12" fill="none" xmlns="http://www.w3.org/2000/svg">
<path fill-rule="evenodd" clip-rule="evenodd" d="M0.166992 5.99999C0.166992 2.77833 2.77866 0.166656 6.00033 0.166656C7.54742 0.166656 9.03115 0.781238 10.1251 1.8752C11.2191 2.96916 11.8337 4.45289 11.8337 5.99999C11.8337 9.22165 9.22199 11.8333 6.00033 11.8333C2.77866 11.8333 0.166992 9.22165 0.166992 5.99999ZM5.25955 7.95416L8.53789 4.67583C8.6453 4.56316 8.6453 4.386 8.53789 4.27333L8.22872 3.96416C8.11531 3.85299 7.9338 3.85299 7.82039 3.96416L5.05539 6.72916L4.18039 5.85999C4.12746 5.8036 4.05356 5.77161 3.97622 5.77161C3.89888 5.77161 3.82498 5.8036 3.77205 5.85999L3.46289 6.16916C3.40767 6.22392 3.37661 6.29847 3.37661 6.37624C3.37661 6.45401 3.40767 6.52856 3.46289 6.58333L4.85122 7.95416C4.90415 8.01055 4.97805 8.04254 5.05539 8.04254C5.13273 8.04254 5.20663 8.01055 5.25955 7.95416Z" fill="#00D0BE"/>
</svg>
