<svg width="72" height="26" viewBox="0 0 72 26" fill="none" xmlns="http://www.w3.org/2000/svg">
<path d="M19.7305 18.2555C20.261 18.2555 20.7974 18.1574 21.2963 17.9696C21.7836 17.7863 22.2382 17.5172 22.6202 17.1709L22.6877 17.1154C22.8282 17.0121 23.0183 16.9278 23.2072 16.9066C23.434 16.8807 23.6622 16.9382 23.8287 17.1361C24.106 17.5006 24.3556 17.9066 24.6245 18.2806C24.7991 18.5638 24.756 18.8236 24.6214 19.054C24.5188 19.23 24.363 19.3723 24.2311 19.4896L24.2119 19.5054C23.5371 20.0121 22.8181 20.4084 22.0529 20.676C21.317 20.9333 20.5431 21.0706 19.7305 21.0706C17.7454 21.0706 15.9547 20.2615 14.6603 18.9507C13.3655 17.6392 12.567 15.8255 12.567 13.8172C12.567 11.8167 13.3696 9.99918 14.6677 8.68319C15.9635 7.36948 17.7527 6.55455 19.7305 6.55455C21.6544 6.55455 23.3544 7.2907 24.5726 8.51625C25.7858 9.73737 26.5194 11.4427 26.5194 13.3881L26.519 13.5058C26.5237 14.018 26.5286 14.5523 25.9328 14.8645C25.7506 14.9601 25.5459 15.0089 25.3394 15.0331C25.1472 15.056 24.9607 15.0577 24.7928 15.0577H15.515C15.768 15.9341 16.2781 16.6904 16.9493 17.2468C17.713 17.8799 18.6878 18.2555 19.7305 18.2555ZM18.2429 4.63636C18.0858 4.51066 17.9543 4.32969 17.849 4.09458C17.3815 3.1492 16.9636 2.01119 16.5356 1.02323C16.5076 0.950426 16.4853 0.889385 16.4718 0.839992C16.3943 0.557348 16.4219 0.353589 16.5604 0.198501C16.6875 0.0540334 16.8765 0 17.1374 0H18.2089C18.4866 0 18.691 0.0957999 18.8571 0.249032C19.0009 0.381538 19.1029 0.549818 19.2007 0.731407C19.5755 1.4225 20.0887 2.77612 20.3946 3.5495C20.4512 3.69283 20.4835 3.8142 20.5169 3.94093L20.5649 4.12026V4.15665C20.5649 4.42187 20.4809 4.59562 20.3232 4.71246C20.1862 4.81464 20.0177 4.84661 19.8157 4.84661H18.8383C18.6164 4.84661 18.4181 4.77598 18.2429 4.63636ZM27.4533 7.78627C27.4533 7.51807 27.5492 7.294 27.7134 7.13283C27.879 6.97073 28.1066 6.87977 28.3675 6.87977H29.2022C29.4722 6.87977 29.6869 6.96288 29.8474 7.11694C30.0081 7.27141 30.1003 7.48713 30.1271 7.75214L30.1745 8.17585C30.5241 7.78689 30.951 7.45568 31.4168 7.19675C32.1529 6.78779 32.9919 6.55455 33.7822 6.55455C35.3946 6.55455 36.7358 7.20563 37.6893 8.24474C38.6931 9.33861 39.263 10.8612 39.263 12.5035V19.758C39.263 20.0377 39.1717 20.285 39.0037 20.4643C38.8378 20.6411 38.606 20.7455 38.3221 20.7455H37.3667C37.0402 20.7455 36.8141 20.656 36.6583 20.4738C36.5096 20.3002 36.4525 20.069 36.4525 19.7714V12.5215C36.4525 11.4944 36.0755 10.7055 35.5066 10.1755C35.1048 9.80077 34.6046 9.55206 34.073 9.4377C33.538 9.32273 32.9718 9.34262 32.4417 9.50575C31.6527 9.7487 30.9382 10.3114 30.515 11.2185C30.4318 11.3976 30.3692 11.5858 30.3269 11.7812C30.2849 11.9752 30.2637 12.1772 30.2637 12.386V19.839C30.2637 20.1122 30.171 20.3355 30.0073 20.496C29.8431 20.6587 29.6161 20.7455 29.3495 20.7455H28.3943C27.7649 20.7455 27.4533 20.4432 27.4533 19.839V7.78627ZM51.2777 2.49079C51.2777 2.23187 51.2942 1.95809 51.32 1.68122C51.3457 1.40621 51.3799 1.14254 51.4155 0.889799C51.4437 0.628603 51.5351 0.416283 51.694 0.263875C51.8545 0.110024 52.0692 0.0271186 52.3395 0.0271186H53.1742C53.4349 0.0271186 53.6627 0.11827 53.8285 0.28037C53.9924 0.441542 54.0885 0.665622 54.0885 0.933624V19.758C54.0885 20.0499 53.9946 20.2945 53.8226 20.4711C53.6507 20.6472 53.4112 20.7455 53.1205 20.7455H52.3661C52.0704 20.7455 51.8365 20.6585 51.6642 20.4858C51.4976 20.3191 51.4046 20.0844 51.3864 19.7842L51.3377 19.0914C50.8868 19.6109 50.3372 20.0299 49.7315 20.3461C48.812 20.8268 47.7624 21.0706 46.7373 21.0706C44.7707 21.0706 43.0683 20.2671 41.8461 18.9793C40.5885 17.6541 39.8414 15.8166 39.8414 13.8172C39.8414 11.8261 40.5927 9.98525 41.8537 8.65504C43.0773 7.36442 44.779 6.55455 46.7373 6.55455C47.7671 6.55455 48.8193 6.81007 49.7375 7.30328C50.3157 7.61407 50.8423 8.02034 51.2777 8.51706V2.49079ZM42.6518 13.8124C42.6518 15.0379 43.1313 16.1564 43.9165 16.9642C44.6899 17.7598 45.7616 18.2555 46.9649 18.2555C48.1737 18.2555 49.2607 17.7538 50.0466 16.9496C50.8419 16.1353 51.3314 15.0124 51.3314 13.7855C51.3314 12.5602 50.8456 11.4557 50.0573 10.6584C49.2688 9.86119 48.1765 9.36985 46.9649 9.36985C45.7636 9.36985 44.692 9.86676 43.9185 10.6625C43.1326 11.4711 42.6518 12.5899 42.6518 13.8124ZM6.81415 15.4018L10.4392 7.569C10.5367 7.35411 10.6727 7.17324 10.8566 7.04311C11.0525 6.90421 11.2935 6.82543 11.5882 6.82543H12.6906C12.8261 6.82543 12.9548 6.8506 13.0705 6.89483C13.2412 6.95918 13.3815 7.0657 13.479 7.19635C13.577 7.32834 13.6328 7.48445 13.6328 7.64614C13.6328 7.75431 13.6077 7.8665 13.5553 7.97529L7.58482 20.5213C7.52946 20.6502 7.45094 20.7759 7.33969 20.8737C7.2053 20.9914 7.0345 21.0678 6.81843 21.0704H6.81802H6.817L6.8066 21.0706L6.79589 21.0704H6.79498H6.79467C6.57187 21.0678 6.40342 20.9892 6.27188 20.8702C6.16185 20.7714 6.08742 20.649 6.03001 20.5265L0.103094 8.01789C0.0650595 7.96437 0.0415059 7.90002 0.0278422 7.8333C0.00816226 7.73606 0 7.61635 0 7.57789C0 7.34092 0.0926901 7.15561 0.278681 7.02413C0.441728 6.91019 0.661267 6.85184 0.937398 6.85184H2.05466C2.31499 6.85184 2.54646 6.92111 2.74092 7.04331C2.93863 7.16674 3.09036 7.34359 3.18896 7.55529L6.81415 15.4018ZM23.7078 12.5405C23.5259 11.6758 23.0676 10.9309 22.439 10.3818C21.7114 9.74582 20.7534 9.36985 19.7305 9.36985C18.6979 9.36985 17.7236 9.7456 16.9583 10.3773C16.2901 10.9287 15.7806 11.6762 15.529 12.5405H23.7078Z" fill="#00D0BE"/>
<path d="M55.3076 0.933656C55.3071 0.665552 55.4032 0.441575 55.5671 0.280403C55.7328 0.1182 55.9604 0.0272522 56.2214 0.0272522H57.0563C57.3269 0.0272522 57.5416 0.110364 57.7015 0.264009C57.8605 0.416313 57.9519 0.628945 57.9799 0.889832C58.0167 1.14958 58.0508 1.4084 58.0762 1.68063C58.1019 1.95379 58.1178 2.22334 58.1178 2.49093L58.1224 10.0347C58.2209 11.4068 58.5791 12.4355 58.8407 13.1874C59.1039 13.9434 59.2818 14.4553 59.0482 14.8711L59.0088 14.9509C58.9493 15.0856 58.9171 15.1575 58.7328 15.247C58.6133 15.3048 58.4235 15.3586 58.0187 15.4728L57.7538 15.5478L57.6895 15.5489C57.0408 15.5476 56.4391 14.9572 56.0102 13.9488C55.6172 13.0248 55.3501 11.7228 55.3178 10.1993L55.3146 9.85691L55.3076 0.933656ZM64.9368 15.6093L68.1956 7.5874C68.2832 7.36694 68.4051 7.18204 68.5708 7.0483C68.7469 6.90589 68.9635 6.82547 69.2287 6.82547H70.2196C70.3407 6.82547 70.4558 6.85063 70.5601 6.89569C70.7134 6.96169 70.84 7.07098 70.928 7.20482C71.0163 7.3398 71.0663 7.50005 71.0663 7.66607C71.0663 7.77589 71.044 7.88994 70.9969 8.00213L63.7519 25.3764C63.6666 25.5798 63.5251 25.7334 63.3541 25.8378C63.1778 25.9452 62.9697 26 62.7603 26H62.0239C61.8365 26 61.6722 25.9731 61.5361 25.918C61.4028 25.8638 61.2958 25.7821 61.2202 25.6718C61.143 25.5609 61.1024 25.4284 61.1024 25.2753C61.1024 25.1415 61.1357 24.9881 61.2039 24.8159L63.5134 19.1411L58.9029 8.021C58.868 7.96521 58.846 7.89943 58.834 7.83023C58.8173 7.73021 58.8107 7.60864 58.8107 7.56946C58.8107 7.07378 59.0918 6.82547 59.6534 6.82547H60.6578C60.8929 6.82547 61.1017 6.8964 61.2762 7.02159C61.4528 7.14811 61.589 7.3298 61.6773 7.54676L64.9368 15.6093Z" fill="#00D0BE" fill-opacity="0.9"/>
<path fill-rule="evenodd" clip-rule="evenodd" d="M56.8622 17.2017C57.3311 17.2017 57.7563 17.3947 58.064 17.7055C58.3723 18.0176 58.5632 18.4476 58.5632 18.9219C58.5632 19.3968 58.3726 19.827 58.0649 20.1382C57.7573 20.4493 57.3318 20.6421 56.8622 20.6421C56.3937 20.6421 55.9685 20.4495 55.6604 20.1382C55.3515 19.8256 55.1611 19.3956 55.1611 18.9219C55.1611 18.4469 55.3517 18.0167 55.6594 17.7055C55.967 17.3944 56.3925 17.2017 56.8622 17.2017Z" fill="#00D0BE"/>
</svg>
