<svg width="82" height="30" viewBox="0 0 82 30" fill="none" xmlns="http://www.w3.org/2000/svg">
<path d="M22.766 21.064C23.3781 21.064 23.997 20.9509 24.5727 20.7342C25.135 20.5226 25.6595 20.2122 26.1002 19.8126L26.1781 19.7486C26.3402 19.6293 26.5595 19.5321 26.7776 19.5076C27.0392 19.4778 27.3025 19.5441 27.4947 19.7725C27.8146 20.1931 28.1026 20.6615 28.4129 21.093C28.6144 21.4198 28.5646 21.7196 28.4093 21.9854C28.291 22.1885 28.1112 22.3527 27.9589 22.488L27.9368 22.5063C27.1582 23.0909 26.3286 23.5482 25.4457 23.857C24.5966 24.1538 23.7036 24.3122 22.766 24.3122C20.4754 24.3122 18.4093 23.3787 16.9158 21.8662C15.4218 20.353 14.5004 18.2602 14.5004 15.9429C14.5004 13.6347 15.4265 11.5375 16.9242 10.0191C18.4194 8.50325 20.4839 7.56295 22.766 7.56295C24.9859 7.56295 26.9475 8.41236 28.353 9.82645C29.7528 11.2354 30.5994 13.2031 30.5994 15.4478L30.5989 15.5836C30.6043 16.1746 30.61 16.7911 29.9225 17.1514C29.7123 17.2617 29.476 17.318 29.2378 17.3459C29.016 17.3724 28.8008 17.3743 28.6071 17.3743H17.9019C18.1938 18.3855 18.7825 19.2582 19.5569 19.9001C20.4381 20.6307 21.5628 21.064 22.766 21.064ZM21.0495 5.34965C20.8683 5.20461 20.7165 4.99579 20.595 4.72452C20.0556 3.63369 19.5734 2.32061 19.0796 1.18065C19.0472 1.09665 19.0216 1.02621 19.0059 0.969223C18.9165 0.643094 18.9484 0.407987 19.1082 0.229039C19.2549 0.0623463 19.4729 0 19.774 0H21.0103C21.3307 0 21.5666 0.110538 21.7582 0.287345C21.9241 0.440236 22.0418 0.634405 22.1546 0.843932C22.5871 1.64135 23.1793 3.20322 23.5323 4.09558C23.5976 4.26096 23.6349 4.401 23.6733 4.54723L23.7287 4.75415V4.79614C23.7287 5.10216 23.6318 5.30265 23.4499 5.43745C23.2918 5.55536 23.0974 5.59225 22.8643 5.59225H21.7365C21.4805 5.59225 21.2516 5.51075 21.0495 5.34965ZM31.6769 8.98417C31.6769 8.6747 31.7876 8.41616 31.977 8.23019C32.1681 8.04316 32.4307 7.9382 32.7318 7.9382H33.6949C34.0064 7.9382 34.2541 8.0341 34.4393 8.21186C34.6247 8.39009 34.7311 8.639 34.7621 8.94478L34.8168 9.43367C35.2201 8.98488 35.7127 8.60272 36.2502 8.30395C37.0995 7.83207 38.0676 7.56295 38.9795 7.56295C40.8399 7.56295 42.3875 8.3142 43.4877 9.51317C44.6459 10.7753 45.3034 12.5322 45.3034 14.4271V22.7977C45.3034 23.1205 45.1981 23.4058 45.0042 23.6127C44.8129 23.8166 44.5454 23.9372 44.2178 23.9372H43.1155C42.7388 23.9372 42.4778 23.8339 42.298 23.6237C42.1265 23.4233 42.0606 23.1565 42.0606 22.8131V14.4479C42.0606 13.2628 41.6256 12.3525 40.9692 11.741C40.5055 11.3086 39.9284 11.0216 39.315 10.8897C38.6978 10.757 38.0444 10.78 37.4327 10.9682C36.5224 11.2485 35.698 11.8978 35.2096 12.9445C35.1136 13.1511 35.0414 13.3683 34.9925 13.5937C34.9442 13.8176 34.9197 14.0506 34.9197 14.2916V22.8912C34.9197 23.2064 34.8128 23.4641 34.6238 23.6492C34.4344 23.837 34.1725 23.9372 33.8648 23.9372H32.7627C32.0364 23.9372 31.6769 23.5883 31.6769 22.8912V8.98417ZM59.1666 2.874C59.1666 2.57523 59.1857 2.25934 59.2154 1.93987C59.2451 1.62255 59.2845 1.31832 59.3256 1.02669C59.3582 0.725312 59.4636 0.480326 59.647 0.304472C59.8322 0.126951 60.0799 0.0312907 60.3918 0.0312907H61.3549C61.6557 0.0312907 61.9186 0.136465 62.1099 0.323504C62.299 0.509472 62.4098 0.768026 62.4098 1.07726V22.7977C62.4098 23.1345 62.3016 23.4167 62.1031 23.6206C61.9047 23.8237 61.6283 23.9372 61.2929 23.9372H60.4225C60.0813 23.9372 59.8114 23.8368 59.6125 23.6375C59.4204 23.4452 59.3131 23.1744 59.292 22.8279L59.2359 22.0286C58.7156 22.628 58.0815 23.1114 57.3826 23.4762C56.3216 24.0309 55.1105 24.3122 53.9277 24.3122C51.6585 24.3122 49.6942 23.3851 48.284 21.8993C46.833 20.3701 45.9709 18.25 45.9709 15.9429C45.9709 13.6455 46.8378 11.5214 48.2927 9.98659C49.7046 8.49742 51.6682 7.56295 53.9277 7.56295C55.1159 7.56295 56.33 7.85777 57.3894 8.42686C58.0566 8.78547 58.6642 9.25425 59.1666 9.82738V2.874ZM49.2136 15.9375C49.2136 17.3514 49.767 18.642 50.6729 19.5741C51.5653 20.4921 52.8019 21.064 54.1903 21.064C55.585 21.064 56.8393 20.4852 57.7461 19.5572C58.6637 18.6176 59.2286 17.322 59.2286 15.9064C59.2286 14.4925 58.668 13.2181 57.7585 12.2982C56.8487 11.3783 55.5883 10.8114 54.1903 10.8114C52.8042 10.8114 51.5677 11.3847 50.6753 12.3029C49.7684 13.2358 49.2136 14.5268 49.2136 15.9375ZM7.86248 17.7713L12.0453 8.73347C12.1578 8.48551 12.3147 8.27682 12.5268 8.12667C12.7529 7.9664 13.031 7.8755 13.371 7.8755H14.643C14.7994 7.8755 14.9478 7.90454 15.0814 7.95558C15.2783 8.02983 15.4402 8.15274 15.5527 8.30349C15.6658 8.45578 15.7301 8.63591 15.7301 8.82248C15.7301 8.94729 15.7012 9.07674 15.6407 9.20226L8.75173 23.6785C8.68784 23.8272 8.59724 23.9723 8.46888 24.0851C8.31381 24.2208 8.11674 24.309 7.86742 24.3121H7.86695H7.86577L7.85377 24.3122L7.84142 24.3121H7.84036H7.84001C7.58293 24.309 7.38856 24.2183 7.23679 24.081C7.10983 23.967 7.02395 23.8258 6.95771 23.6844L0.118954 9.25141C0.0750687 9.18966 0.0478915 9.11541 0.0321256 9.03843C0.00941799 8.92623 0 8.7881 0 8.74372C0 8.4703 0.10695 8.25648 0.321555 8.10478C0.509687 7.9733 0.763001 7.90597 1.08161 7.90597H2.37077C2.67114 7.90597 2.93823 7.98591 3.1626 8.1269C3.39073 8.26932 3.5658 8.47338 3.67958 8.71765L7.86248 17.7713ZM27.3551 14.4698C27.1452 13.472 26.6165 12.6126 25.8911 11.9791C25.0517 11.2452 23.9463 10.8114 22.766 10.8114C21.5745 10.8114 20.4504 11.2449 19.5672 11.9738C18.7962 12.61 18.2084 13.4725 17.9181 14.4698H27.3551Z" fill="white"/>
<path d="M63.8164 1.0771C63.8158 0.76775 63.9267 0.509315 64.1158 0.323347C64.307 0.136189 64.5696 0.03125 64.8707 0.03125H65.8341C66.1464 0.03125 66.3941 0.127149 66.5786 0.304431C66.762 0.480167 66.8675 0.725511 66.8998 1.02653C66.9423 1.32625 66.9816 1.62489 67.0109 1.939C67.0405 2.25418 67.0589 2.5652 67.0589 2.87395L67.0642 11.5783C67.1778 13.1615 67.5912 14.3485 67.8931 15.216C68.1967 16.0884 68.402 16.679 68.1325 17.1588L68.087 17.2509C68.0184 17.4062 67.9812 17.4893 67.7686 17.5926C67.6307 17.6592 67.4116 17.7213 66.9445 17.853L66.639 17.9396L66.5647 17.9408C65.8162 17.9394 65.1219 17.2581 64.6271 16.0946C64.1736 15.0284 63.8655 13.5261 63.8282 11.7682L63.8245 11.3732L63.8164 1.0771ZM74.927 18.0105L78.6872 8.75451C78.7882 8.50013 78.9288 8.28678 79.12 8.13246C79.3232 7.96814 79.5732 7.87535 79.8792 7.87535H81.0225C81.1623 7.87535 81.2951 7.90439 81.4154 7.95638C81.5923 8.03253 81.7384 8.15863 81.8399 8.31307C81.9418 8.46882 81.9996 8.65372 81.9996 8.84528C81.9996 8.97199 81.9738 9.10359 81.9194 9.23304L73.5599 29.2802C73.4614 29.515 73.2981 29.6923 73.1008 29.8127C72.8973 29.9367 72.6573 29.9998 72.4156 29.9998H71.5659C71.3497 29.9998 71.1601 29.9688 71.0031 29.9052C70.8493 29.8426 70.7259 29.7484 70.6386 29.6211C70.5495 29.4932 70.5027 29.3403 70.5027 29.1636C70.5027 29.0093 70.5412 28.8323 70.6199 28.6336L73.2847 22.0857L67.9648 9.25481C67.9246 9.19044 67.8992 9.11453 67.8853 9.0347C67.866 8.91928 67.8585 8.77902 67.8585 8.7338C67.8585 8.16186 68.1827 7.87535 68.8308 7.87535H69.9897C70.261 7.87535 70.5019 7.9572 70.7033 8.10164C70.9071 8.24763 71.0641 8.45728 71.166 8.70761L74.927 18.0105Z" fill="white" fill-opacity="0.9"/>
<path fill-rule="evenodd" clip-rule="evenodd" d="M65.6102 19.8481C66.1513 19.8481 66.6419 20.0709 66.9969 20.4295C67.3527 20.7896 67.5729 21.2858 67.5729 21.833C67.5729 22.381 67.353 22.8774 66.998 23.2365C66.643 23.5955 66.1521 23.8179 65.6102 23.8179C65.0697 23.8179 64.5791 23.5957 64.2235 23.2365C63.8671 22.8757 63.6475 22.3796 63.6475 21.833C63.6475 21.285 63.8674 20.7886 64.2223 20.4295C64.5773 20.0705 65.0683 19.8481 65.6102 19.8481Z" fill="white"/>
</svg>
