<svg width="5" height="8" viewBox="0 0 5 8" fill="none" xmlns="http://www.w3.org/2000/svg">
<path d="M0.146617 4.48017C0.0527895 4.38646 1.55494e-05 4.25932 -0.000100793 4.12671L-0.000100782 3.87329C0.00143559 3.74097 0.0539955 3.61435 0.146617 3.51983L3.57448 0.0986339C3.6371 0.0355076 3.72232 -3.92438e-08 3.81123 -3.53574e-08C3.90014 -3.1471e-08 3.98537 0.0355076 4.04798 0.0986339L4.52148 0.572133C4.58421 0.633597 4.61957 0.717724 4.61957 0.805548C4.61957 0.893372 4.58421 0.977499 4.52148 1.03896L1.55378 4L4.52148 6.96104C4.58461 7.02365 4.62012 7.10888 4.62012 7.19779C4.62012 7.2867 4.58461 7.37193 4.52148 7.43454L4.04798 7.90137C3.98537 7.96449 3.90014 8 3.81123 8C3.72232 8 3.6371 7.96449 3.57448 7.90137L0.146617 4.48017Z" fill="#03332A"/>
</svg>
