<svg width="123" height="60" viewBox="0 0 123 60" fill="none" xmlns="http://www.w3.org/2000/svg">
<path d="M13.7189 51.543C13.7189 51.4312 13.7512 51.341 13.8134 51.2746C13.8757 51.208 13.9637 51.1716 14.0818 51.1628H14.7152C14.784 51.1628 14.8482 51.165 14.9063 51.1695C14.9643 51.1737 15.0179 51.1866 15.0674 51.208C15.1166 51.2294 15.1597 51.2618 15.1961 51.3025C15.2325 51.3453 15.2627 51.4077 15.2841 51.4893L15.3679 51.9164C15.5825 51.6461 15.821 51.4312 16.0827 51.2725C16.3447 51.1135 16.6669 51.0341 17.049 51.0341C17.474 51.0341 17.8712 51.12 18.2384 51.2896C18.6055 51.4593 18.9234 51.6911 19.194 51.9873C19.4643 52.2857 19.677 52.6315 19.8293 53.0265C19.9818 53.4215 20.057 53.8446 20.057 54.2955C20.057 54.7528 19.9818 55.1778 19.8315 55.5771C19.6813 55.9745 19.4707 56.32 19.1983 56.6141C18.9277 56.9085 18.6077 57.1402 18.2341 57.3099C17.8626 57.4795 17.4569 57.5655 17.0188 57.5655C16.8558 57.5655 16.7012 57.5481 16.5551 57.5138C16.4092 57.4796 16.2717 57.4322 16.1451 57.372C16.0185 57.312 15.9002 57.2411 15.7929 57.1616C15.6856 57.0822 15.5911 56.9986 15.5095 56.9085V59.6071C15.5095 59.7187 15.4752 59.8089 15.4065 59.8798C15.3377 59.9507 15.2389 59.9871 15.1102 59.9871H14.1377C14.0261 59.9871 13.9295 59.9507 13.8457 59.8798C13.7619 59.8089 13.7189 59.7187 13.7189 59.6071V51.543ZM15.3422 54.2631C15.3422 54.493 15.3807 54.7055 15.4581 54.903C15.5354 55.1005 15.6406 55.2744 15.7736 55.4227C15.9069 55.5707 16.0613 55.6889 16.2374 55.7748C16.4135 55.8605 16.6024 55.9036 16.8042 55.9036C17.0017 55.9036 17.1885 55.8605 17.3624 55.7748C17.5364 55.6889 17.6887 55.5728 17.8198 55.427C17.9507 55.2787 18.0537 55.1091 18.1289 54.9137C18.2041 54.7162 18.2405 54.508 18.2405 54.2826C18.2405 54.0635 18.2041 53.8574 18.1289 53.6599C18.0537 53.4645 17.9507 53.2949 17.8198 53.1511C17.6887 53.0072 17.5364 52.8934 17.3624 52.8097C17.1885 52.7259 17.0017 52.6831 16.8042 52.6831C16.6067 52.6831 16.4199 52.7259 16.2438 52.8097C16.0677 52.8934 15.9133 53.005 15.78 53.1469C15.647 53.2906 15.5418 53.456 15.4624 53.6471C15.3829 53.8403 15.3422 54.0442 15.3422 54.2631ZM25.7832 57.1616C25.7746 57.0822 25.7637 57.0008 25.7508 56.9234C25.738 56.844 25.7251 56.7645 25.7123 56.6829C25.6349 56.7988 25.549 56.9127 25.4546 57.0265C25.3601 57.1402 25.2485 57.2433 25.1198 57.3356C24.9908 57.4279 24.8385 57.5031 24.6645 57.5588C24.4906 57.6147 24.2845 57.6426 24.0483 57.6426H24.0161C23.5566 57.6426 23.1357 57.5588 22.7557 57.3915C22.3735 57.224 22.0451 56.992 21.7682 56.7C21.4912 56.408 21.2766 56.0625 21.124 55.6609C20.9715 55.2616 20.8944 54.8299 20.8944 54.3707C20.8944 53.9026 20.9715 53.4667 21.124 53.0674C21.2766 52.6657 21.4891 52.3202 21.7617 52.0282C22.0344 51.7363 22.3628 51.5043 22.745 51.3368C23.1272 51.1695 23.5524 51.0857 24.0161 51.0857C24.2565 51.0857 24.4713 51.1157 24.6603 51.1759C24.8514 51.2359 25.0165 51.3175 25.1605 51.4184C25.3044 51.5193 25.4289 51.6352 25.5362 51.7641C25.6414 51.895 25.7315 52.0282 25.8089 52.1656L25.9248 51.5407C25.9419 51.4721 25.9591 51.4141 25.9743 51.367C25.9893 51.3196 26.0107 51.2832 26.0364 51.2573C26.0623 51.2316 26.0944 51.2144 26.133 51.2037C26.1718 51.193 26.221 51.1866 26.2812 51.1866H26.9789C27.0798 51.1866 27.1657 51.2187 27.2388 51.2811C27.3118 51.3432 27.3482 51.4269 27.3482 51.5343V57.1919C27.3482 57.2949 27.3118 57.3744 27.2388 57.4301C27.1657 57.486 27.0798 57.5138 26.9789 57.5138H26.1458C26.0171 57.5138 25.9291 57.4817 25.8841 57.4172C25.8389 57.3549 25.8046 57.269 25.7832 57.1616ZM22.582 54.3857C22.582 54.6239 22.6184 54.8452 22.6914 55.0512C22.7645 55.2573 22.8697 55.4377 23.0048 55.5902C23.1402 55.7425 23.3032 55.8627 23.4943 55.9507C23.6854 56.0388 23.896 56.0839 24.1277 56.0839C24.364 56.0839 24.5787 56.0409 24.7719 55.955C24.9651 55.8693 25.1305 55.7511 25.2656 55.6009C25.401 55.4484 25.5041 55.2701 25.5769 55.0641C25.65 54.858 25.6866 54.6346 25.6866 54.3921C25.6866 54.1601 25.6521 53.9412 25.5812 53.7308C25.5105 53.5226 25.4075 53.3401 25.2721 53.1833C25.1369 53.0265 24.9737 52.902 24.7826 52.8097C24.5915 52.7174 24.3726 52.67 24.1277 52.67C23.8915 52.67 23.679 52.7152 23.4879 52.8054C23.2968 52.8956 23.1336 53.0201 23.0005 53.1769C22.8675 53.3337 22.7645 53.5159 22.6914 53.7244C22.6184 53.9347 22.582 54.1537 22.582 54.3857ZM31.5929 59.7102C31.5543 59.7746 31.4984 59.8391 31.4232 59.9034C31.348 59.9679 31.2666 60 31.1807 60H30.1373C30.0383 60 29.9548 59.9807 29.886 59.9421C29.8172 59.9034 29.783 59.8327 29.783 59.7296C29.783 59.6652 29.7916 59.6071 29.8087 59.5557L30.5816 57.4472L28.237 51.6911H28.2434C28.2177 51.6439 28.2027 51.6009 28.1963 51.5623C28.1899 51.5236 28.1856 51.4936 28.1856 51.4721C28.1856 51.2832 28.3015 51.1887 28.5333 51.1887H29.6605C29.7723 51.1887 29.8625 51.2187 29.931 51.2768C29.9998 51.3346 30.045 51.4055 30.0664 51.4914V51.485L30.5559 52.7623C30.7148 53.209 30.8693 53.6321 31.0175 54.0335C31.1655 54.4371 31.318 54.843 31.477 55.2551L32.8619 51.4721C32.9304 51.2832 33.0722 51.1887 33.2869 51.1887H34.4012C34.5342 51.1887 34.6287 51.2187 34.6825 51.2768C34.736 51.3346 34.7619 51.4098 34.7619 51.5043C34.7619 51.5257 34.7577 51.5559 34.7491 51.5923C34.7403 51.6287 34.7253 51.6761 34.7039 51.7363L31.5929 59.7102ZM37.0463 51.1887C37.1194 51.1887 37.1817 51.2166 37.2331 51.2746C37.2847 51.3325 37.3276 51.4034 37.3642 51.4871C37.3985 51.5709 37.4263 51.6611 37.4478 51.7577C37.4694 51.8522 37.4865 51.938 37.4994 52.0109C37.5896 51.9014 37.6883 51.7962 37.7978 51.6911C37.9073 51.5837 38.0298 51.4893 38.1671 51.4055C38.3046 51.3218 38.4569 51.253 38.6266 51.2016C38.7962 51.15 38.983 51.1243 39.1891 51.1243C39.408 51.1243 39.6184 51.1521 39.8182 51.2059C40.02 51.2594 40.2047 51.3303 40.372 51.4226C40.5395 51.5128 40.6899 51.618 40.8208 51.7384C40.954 51.8586 41.0635 51.9895 41.1494 52.127C41.2524 51.9809 41.3726 51.8436 41.508 51.7168C41.6431 51.588 41.7935 51.4786 41.9544 51.3841C42.1155 51.2875 42.2873 51.2144 42.4677 51.1628C42.648 51.1114 42.837 51.0857 43.0302 51.0857C43.4659 51.0857 43.8416 51.1564 44.1616 51.2961C44.4793 51.4355 44.7435 51.6244 44.9517 51.865C45.162 52.1054 45.3188 52.3911 45.424 52.7195C45.5292 53.0481 45.5894 53.4001 45.6022 53.7736C45.6022 53.8724 45.6022 53.969 45.6022 54.0613C45.6022 54.1537 45.6022 54.2481 45.6022 54.3469V57.1338C45.6022 57.254 45.5658 57.3463 45.4906 57.4129C45.4154 57.4796 45.321 57.5138 45.2094 57.5138H44.2368C43.962 57.5138 43.8245 57.3915 43.8245 57.1466V53.939C43.8245 53.7801 43.8031 53.6299 43.7602 53.4881C43.7172 53.3465 43.6527 53.224 43.5689 53.1209C43.4854 53.0179 43.3823 52.9363 43.2619 52.8763C43.1418 52.8161 43.0043 52.7861 42.8498 52.7861C42.6973 52.7861 42.5514 52.814 42.4074 52.872C42.2616 52.9299 42.1348 53.0115 42.0232 53.1145C41.9094 53.2176 41.8192 53.3379 41.7505 53.4774C41.6817 53.617 41.6474 53.7672 41.6474 53.9262V57.1402C41.6474 57.2604 41.611 57.3527 41.5401 57.4172C41.4692 57.4817 41.379 57.5138 41.2653 57.5138H40.2004C40.0736 57.5138 39.9834 57.4817 39.9277 57.4194C39.8718 57.357 39.844 57.2668 39.844 57.1466V53.881C39.844 53.7094 39.8182 53.5547 39.7645 53.4172C39.7107 53.2799 39.6379 53.164 39.5456 53.0717C39.4554 52.9793 39.3438 52.9084 39.217 52.859C39.0882 52.8097 38.9464 52.7861 38.7941 52.7861C38.648 52.7861 38.5064 52.814 38.3689 52.872C38.2294 52.9299 38.1069 53.0093 37.9996 53.1102C37.8923 53.2111 37.8064 53.3292 37.74 53.4645C37.6733 53.5997 37.641 53.748 37.641 53.9069V57.1724C37.641 57.2711 37.611 57.3527 37.5508 57.4172C37.4908 57.4817 37.4114 57.5138 37.3105 57.5138H36.2068C36.0802 57.5138 35.9879 57.4796 35.9277 57.4129C35.8677 57.3463 35.8375 57.2626 35.8375 57.1595V51.588C35.8375 51.4721 35.8784 51.3755 35.9579 51.3003C36.0372 51.2251 36.1145 51.1887 36.194 51.1887H37.0463ZM50.0532 56.1353C50.2376 56.1353 50.4332 56.1011 50.6371 56.0345C50.841 55.968 51.0343 55.8669 51.2189 55.7296C51.2791 55.6954 51.3327 55.6652 51.3779 55.6395C51.4228 55.6137 51.4723 55.6009 51.528 55.6009C51.5754 55.6009 51.6203 55.6116 51.6634 55.633C51.7062 55.6545 51.7472 55.6932 51.7857 55.7489L52.2623 56.3995C52.3183 56.4725 52.3461 56.5477 52.3461 56.625C52.3461 56.6936 52.3247 56.7581 52.2816 56.8183C52.2388 56.8783 52.185 56.932 52.1208 56.9791C51.9875 57.0822 51.8395 57.1745 51.6763 57.2561C51.513 57.3377 51.3412 57.4065 51.1609 57.4643C50.9805 57.5224 50.798 57.5676 50.6133 57.5976C50.4289 57.6276 50.2464 57.6426 50.066 57.6426C49.628 57.6426 49.2179 57.5567 48.8358 57.3872C48.4536 57.2176 48.1186 56.9856 47.8309 56.6914C47.5432 56.3952 47.3176 56.0495 47.1525 55.6523C46.9871 55.253 46.9034 54.8235 46.9034 54.3642C46.9034 53.9219 46.9828 53.501 47.1396 53.1017C47.2962 52.7045 47.5132 52.3566 47.79 52.0561C48.067 51.7577 48.3934 51.5214 48.7692 51.3475C49.1449 51.1737 49.5506 51.0857 49.9887 51.0857C50.4008 51.0857 50.7894 51.1649 51.1523 51.3218C51.5152 51.4786 51.8328 51.6932 52.1077 51.9638C52.3825 52.2365 52.5995 52.5563 52.7583 52.9277C52.9172 53.297 52.9967 53.6963 52.9967 54.1237V54.1622C52.9967 54.3255 52.9774 54.4608 52.9386 54.566C52.9001 54.6712 52.842 54.755 52.7625 54.8149C52.6831 54.8751 52.5843 54.9158 52.4663 54.9396C52.3483 54.9632 52.2086 54.976 52.0498 54.976H48.6231C48.6661 55.1564 48.737 55.3175 48.8336 55.4612C48.9303 55.6052 49.0419 55.7275 49.1706 55.8262C49.2995 55.925 49.4411 56.0002 49.5937 56.0537C49.746 56.1075 49.8985 56.1353 50.0532 56.1353ZM51.3476 53.6877C51.3177 53.5376 51.2618 53.3958 51.1804 53.2627C51.0987 53.1295 50.9979 53.0136 50.8775 52.917C50.7573 52.8204 50.6221 52.7452 50.4717 52.6895C50.3214 52.6336 50.1626 52.6058 49.9951 52.6058C49.8447 52.6058 49.6989 52.6293 49.5549 52.6788C49.4112 52.7281 49.2779 52.799 49.1577 52.8913C49.0376 52.9836 48.9345 53.0974 48.8486 53.2304C48.7627 53.3636 48.7026 53.5159 48.6683 53.6877H51.3476ZM55.322 51.1887C55.4507 51.1887 55.5473 51.2101 55.6118 51.253C55.6761 51.296 55.7255 51.3539 55.7577 51.4291C55.79 51.5043 55.8136 51.5923 55.8286 51.6911C55.8436 51.7898 55.865 51.895 55.8952 52.0066C55.9939 51.895 56.1077 51.7855 56.2364 51.6782C56.3654 51.5709 56.5091 51.4743 56.6659 51.3905C56.8227 51.3068 56.9922 51.2401 57.1768 51.1887C57.3615 51.1371 57.559 51.1114 57.7696 51.1114C58.1689 51.1114 58.5253 51.1737 58.8366 51.3003C59.1478 51.4269 59.4098 51.603 59.6223 51.8286C59.835 52.0539 59.9959 52.3223 60.1077 52.6336C60.2193 52.9449 60.275 53.2863 60.275 53.6556V57.1338C60.275 57.254 60.2386 57.3463 60.1656 57.4129C60.0925 57.4796 60.0045 57.5138 59.9014 57.5138H58.8451C58.7078 57.5138 58.6134 57.4817 58.5617 57.4194C58.5103 57.357 58.4844 57.2668 58.4844 57.1466V53.9519C58.4844 53.7801 58.4565 53.6213 58.3985 53.4774C58.3407 53.3336 58.259 53.2133 58.1539 53.1145C58.0487 53.0158 57.924 52.9384 57.7824 52.8827C57.6406 52.8268 57.4862 52.799 57.3186 52.799C57.1811 52.799 57.0417 52.8268 56.8977 52.8849C56.754 52.9427 56.6207 53.0222 56.5006 53.1231C56.3804 53.224 56.2773 53.3422 56.1914 53.4774C56.1055 53.6128 56.0497 53.7587 56.0239 53.9133V57.1595C56.0239 57.3958 55.8973 57.5138 55.6439 57.5138H54.6069C54.4825 57.5138 54.3901 57.4796 54.3278 57.4129C54.2655 57.3463 54.2333 57.2626 54.2333 57.1595V51.5752C54.2333 51.4507 54.2655 51.3539 54.3299 51.2875C54.3944 51.2209 54.4932 51.1887 54.6262 51.1887H55.322ZM61.8081 49.4431C61.8081 49.3401 61.8403 49.2542 61.9047 49.1875C61.9692 49.1211 62.068 49.0802 62.2032 49.0631L63.1973 48.9215C63.2145 48.9215 63.2316 48.9215 63.2466 48.9215C63.2616 48.9215 63.2747 48.9215 63.2875 48.9215C63.4141 48.9215 63.4957 48.9579 63.5364 49.031C63.5773 49.104 63.5987 49.1963 63.5987 49.3079V51.1759H64.3716C64.4789 51.1759 64.5649 51.208 64.6293 51.2725C64.6938 51.3368 64.7259 51.4312 64.7259 51.558V52.2686C64.7259 52.4061 64.6938 52.5092 64.6293 52.5734C64.5649 52.6379 64.4789 52.67 64.3716 52.67H63.5987V57.1338C63.5987 57.2583 63.5623 57.3527 63.4893 57.4172C63.4162 57.4817 63.3153 57.5138 63.1845 57.5138H62.1903C61.9347 57.5138 61.8081 57.3872 61.8081 57.1338V52.67H61.4602C61.207 52.67 61.0802 52.537 61.0802 52.2686V51.558C61.0802 51.3025 61.207 51.1759 61.4602 51.1759H61.8081V49.4431ZM69.6019 56.6443C69.5502 56.5841 69.5095 56.5261 69.4796 56.4725C69.4494 56.4188 69.4343 56.3524 69.4343 56.2707C69.4343 56.2362 69.4408 56.1934 69.4515 56.1439C69.4624 56.0947 69.5117 56.0387 69.6019 55.9745L70.276 55.4141H70.2696C70.2524 55.4141 70.2503 55.4098 70.2632 55.4034C70.276 55.3967 70.2931 55.3903 70.3169 55.3839C70.3405 55.3775 70.364 55.371 70.3898 55.3646C70.4157 55.3582 70.435 55.356 70.4478 55.356C70.508 55.356 70.5615 55.3753 70.6089 55.4162C70.656 55.4569 70.6991 55.5043 70.7376 55.5557C70.8064 55.6587 70.8902 55.7425 70.9932 55.8091C71.0962 55.8757 71.2036 55.9293 71.3152 55.9702C71.4246 56.0109 71.5343 56.0409 71.6395 56.0582C71.7425 56.0754 71.8348 56.0839 71.9122 56.0839C71.9828 56.0839 72.0645 56.0732 72.1525 56.0537C72.2384 56.0345 72.3222 56.0066 72.3995 55.9681C72.4747 55.9293 72.539 55.8822 72.5906 55.8262C72.642 55.7703 72.6679 55.7039 72.6679 55.6266C72.6679 55.545 72.6398 55.4719 72.5841 55.4077C72.5282 55.3432 72.4531 55.2851 72.3586 55.2316C72.2641 55.18 72.1568 55.1328 72.0323 55.0876C71.9079 55.0427 71.7746 54.9996 71.6331 54.961C70.9566 54.7678 70.4414 54.5016 70.0892 54.1622C69.7392 53.8231 69.5633 53.4043 69.5633 52.9106C69.5633 52.6357 69.6233 52.3845 69.7413 52.1591C69.8596 51.9338 70.0226 51.7384 70.2332 51.5752C70.4414 51.4119 70.6905 51.2854 70.9782 51.1952C71.268 51.105 71.5836 51.0598 71.9272 51.0598C72.8074 51.0598 73.5181 51.4055 74.059 52.0946C74.0849 52.1291 74.1042 52.1656 74.1149 52.2022C74.1256 52.2386 74.1299 52.2707 74.1299 52.2967C74.1213 52.3523 74.1042 52.3954 74.0785 52.4275C74.0526 52.4597 74.0097 52.5027 73.9496 52.5541H73.956L73.9367 52.5734L73.9238 52.5865L73.8658 52.6572L73.6918 52.8054C73.5802 52.8999 73.4858 52.9815 73.4085 53.0524C73.3313 53.1231 73.2561 53.1576 73.1831 53.1533C73.11 53.1533 73.0544 53.1359 73.0156 53.1038C72.977 53.0717 72.934 53.0307 72.8868 52.9793C72.8309 52.9149 72.7645 52.8547 72.6872 52.799C72.6099 52.7431 72.5304 52.6917 72.4466 52.6465C72.3629 52.6015 72.277 52.567 72.1913 52.5413C72.1054 52.5156 72.0238 52.5027 71.9464 52.5027C71.7832 52.5027 71.6545 52.522 71.56 52.5606C71.4655 52.5993 71.3946 52.6443 71.3453 52.6981C71.2959 52.7516 71.2637 52.8075 71.2487 52.8656C71.2335 52.9234 71.225 52.9708 71.225 53.005C71.225 53.0909 71.2509 53.164 71.3023 53.224C71.3539 53.2842 71.4182 53.3358 71.4977 53.3786C71.5771 53.4215 71.6652 53.456 71.7639 53.4838C71.8627 53.5117 71.9572 53.5397 72.0452 53.5654L72.1547 53.5976C72.4811 53.6877 72.7795 53.7908 73.0544 53.9069C73.327 54.0228 73.5631 54.1601 73.7585 54.3212C73.956 54.4823 74.1085 54.6712 74.218 54.888C74.3274 55.1048 74.3812 55.3603 74.3812 55.6523C74.3812 55.9659 74.3146 56.245 74.1815 56.4918C74.0483 56.7388 73.8679 56.947 73.6362 57.1167C73.4042 57.2863 73.1338 57.4172 72.8202 57.5074C72.5068 57.5976 72.1718 57.6426 71.8111 57.6426C71.6071 57.6426 71.3989 57.6211 71.1928 57.5804C70.9846 57.5395 70.785 57.4774 70.5939 57.3936C70.405 57.3099 70.2246 57.2068 70.0549 57.0822C69.8853 56.9577 69.7349 56.8118 69.6019 56.6443ZM74.9609 54.3533C74.9609 53.894 75.0489 53.4645 75.2228 53.0653C75.3966 52.6657 75.6328 52.3181 75.9312 52.024C76.2296 51.7296 76.5818 51.4979 76.9875 51.3282C77.3956 51.1585 77.8292 51.0726 78.2951 51.0726C78.7503 51.0726 79.1798 51.1585 79.5834 51.3282C79.9869 51.4979 80.3391 51.7296 80.6375 52.024C80.9359 52.3181 81.1722 52.6657 81.3461 53.0653C81.5201 53.4645 81.6079 53.894 81.6079 54.3533C81.6079 54.8149 81.5201 55.2444 81.3461 55.648C81.1722 56.0494 80.9359 56.3973 80.6375 56.6957C80.3391 56.992 79.9869 57.2261 79.5834 57.3979C79.1798 57.5697 78.7503 57.6556 78.2951 57.6556C77.8292 57.6556 77.3956 57.5697 76.9875 57.3979C76.5818 57.2261 76.2296 56.992 75.9312 56.6957C75.6328 56.3973 75.3966 56.0494 75.2228 55.648C75.0489 55.2444 74.9609 54.8149 74.9609 54.3533ZM76.7515 54.3512C76.7515 54.5746 76.7879 54.785 76.8631 54.9825C76.9383 55.18 77.0434 55.3539 77.1765 55.5043C77.3076 55.6544 77.4684 55.7725 77.6552 55.8605C77.8399 55.9486 78.0483 55.9938 78.2758 55.9938C78.4969 55.9938 78.701 55.9486 78.8812 55.8605C79.0637 55.7725 79.2205 55.6544 79.3514 55.5043C79.4825 55.3539 79.5834 55.18 79.6564 54.9825C79.7293 54.785 79.7659 54.5746 79.7659 54.3512C79.7659 54.1365 79.7293 53.9326 79.6564 53.7394C79.5834 53.5462 79.4825 53.3765 79.3514 53.2325C79.2205 53.0888 79.0637 52.9751 78.8812 52.8892C78.701 52.8033 78.4969 52.7602 78.2758 52.7602C78.0483 52.7602 77.8399 52.8033 77.6552 52.8892C77.4684 52.9751 77.3076 53.0888 77.1765 53.2325C77.0434 53.3765 76.9383 53.5462 76.8631 53.7394C76.7879 53.9326 76.7515 54.1365 76.7515 54.3512ZM86.8703 55.5945C86.9605 55.53 87.0399 55.4979 87.1087 55.4979C87.216 55.4979 87.3191 55.5707 87.4178 55.7168L87.9394 56.5218C87.9782 56.5777 87.9975 56.6358 87.9975 56.6957C87.9975 56.7645 87.976 56.8247 87.9308 56.8761C87.8859 56.9277 87.8364 56.9706 87.785 57.0051C87.5059 57.1897 87.2074 57.3399 86.8874 57.4558C86.5676 57.5719 86.2283 57.6297 85.8718 57.6297C85.4254 57.6297 85.0066 57.5438 84.6138 57.3744C84.2209 57.2047 83.8773 56.9749 83.5853 56.6829C83.2933 56.3909 83.0637 56.0452 82.894 55.648C82.7244 55.2509 82.6385 54.8256 82.6385 54.3707C82.6385 53.9155 82.7244 53.4881 82.894 53.091C83.0637 52.6938 83.2933 52.3502 83.5853 52.0604C83.8773 51.7705 84.2209 51.5431 84.6138 51.3755C85.0066 51.208 85.4254 51.1243 85.8718 51.1243C86.2283 51.1243 86.5612 51.1737 86.8703 51.2704C87.1794 51.367 87.4649 51.5086 87.7269 51.6932C87.7914 51.7275 87.8449 51.7748 87.888 51.8329C87.9308 51.8907 87.9525 51.9616 87.9525 52.0497C87.9525 52.0796 87.948 52.1098 87.9394 52.142C87.9309 52.1741 87.9159 52.2043 87.8944 52.23L87.45 52.9858C87.3555 53.149 87.2417 53.2304 87.1087 53.2304C87.0399 53.2304 86.9562 53.1961 86.8574 53.1274C86.7156 53.0286 86.5633 52.9491 86.3979 52.8892C86.2326 52.829 86.0522 52.799 85.859 52.799C85.6486 52.799 85.4576 52.8397 85.2836 52.9234C85.1097 53.0072 84.9595 53.1231 84.8348 53.2692C84.7104 53.4129 84.6138 53.5826 84.545 53.7736C84.4764 53.9626 84.442 54.1644 84.442 54.3728C84.442 54.5917 84.4764 54.7957 84.545 54.9846C84.6138 55.1735 84.7104 55.3389 84.8348 55.4784C84.9595 55.6202 85.1097 55.7318 85.2836 55.8112C85.4576 55.8907 85.6486 55.9293 85.859 55.9293C86.2368 55.9293 86.574 55.8177 86.8703 55.5945ZM91.3726 57.1595C91.3726 57.2711 91.3405 57.357 91.2739 57.4194C91.2073 57.4817 91.1149 57.5138 90.999 57.5138H89.9363C89.7 57.5138 89.582 57.3958 89.582 57.1595V51.5364C89.582 51.4377 89.6141 51.3539 89.6765 51.2832C89.7388 51.2123 89.8245 51.1759 89.9363 51.1759H90.999C91.0849 51.1759 91.1687 51.2101 91.2503 51.2789C91.3317 51.3475 91.3726 51.4334 91.3726 51.5364V57.1595ZM89.4145 49.4003C89.4145 49.2585 89.4423 49.1254 89.4961 48.9965C89.5499 48.8699 89.6227 48.7604 89.715 48.6638C89.8074 48.5693 89.9168 48.4941 90.0436 48.4382C90.1702 48.3825 90.3056 48.3547 90.4515 48.3547C90.5976 48.3547 90.7349 48.3825 90.8615 48.4382C90.9883 48.4941 91.0978 48.5693 91.1901 48.6638C91.2824 48.7604 91.3534 48.8699 91.4048 48.9965C91.4564 49.1254 91.4821 49.2585 91.4821 49.4003C91.4821 49.544 91.4564 49.6772 91.4048 49.8017C91.3534 49.9262 91.2824 50.0356 91.1901 50.1279C91.0978 50.2203 90.9883 50.2933 90.8615 50.3471C90.7349 50.4006 90.5976 50.4287 90.4515 50.4287C90.3056 50.4287 90.1702 50.4006 90.0436 50.3471C89.9168 50.2933 89.8074 50.2203 89.715 50.1279C89.6227 50.0356 89.5499 49.9262 89.4961 49.8017C89.4423 49.6772 89.4145 49.544 89.4145 49.4003ZM97.7108 57.1616C97.7022 57.0822 97.6913 57.0008 97.6784 56.9234C97.6656 56.844 97.6527 56.7645 97.6399 56.6829C97.5625 56.7988 97.4766 56.9127 97.3822 57.0265C97.2877 57.1402 97.1761 57.2433 97.0473 57.3356C96.9184 57.4279 96.7661 57.5031 96.5921 57.5588C96.4182 57.6147 96.2121 57.6426 95.9759 57.6426H95.9437C95.4842 57.6426 95.0633 57.5588 94.6833 57.3915C94.3011 57.224 93.9727 56.992 93.6958 56.7C93.4188 56.408 93.2042 56.0625 93.0516 55.6609C92.8991 55.2616 92.822 54.8299 92.822 54.3707C92.822 53.9026 92.8991 53.4667 93.0516 53.0674C93.2042 52.6657 93.4166 52.3202 93.6893 52.0282C93.962 51.7363 94.2904 51.5043 94.6726 51.3368C95.0547 51.1695 95.48 51.0857 95.9437 51.0857C96.1841 51.0857 96.3989 51.1157 96.5879 51.1759C96.779 51.2359 96.9441 51.3175 97.0881 51.4184C97.232 51.5193 97.3565 51.6352 97.4638 51.7641C97.569 51.895 97.6591 52.0282 97.7365 52.1656L97.8524 51.5407C97.8695 51.4721 97.8867 51.4141 97.9019 51.367C97.9169 51.3196 97.9383 51.2832 97.964 51.2573C97.9899 51.2316 98.022 51.2144 98.0606 51.2037C98.0994 51.193 98.1486 51.1866 98.2088 51.1866H98.9065C99.0074 51.1866 99.0933 51.2187 99.1664 51.2811C99.2394 51.3432 99.2758 51.4269 99.2758 51.5343V57.1919C99.2758 57.2949 99.2394 57.3744 99.1664 57.4301C99.0933 57.486 99.0074 57.5138 98.9065 57.5138H98.0734C97.9447 57.5138 97.8567 57.4817 97.8117 57.4172C97.7665 57.3549 97.7322 57.269 97.7108 57.1616ZM94.5096 54.3857C94.5096 54.6239 94.546 54.8452 94.619 55.0512C94.6921 55.2573 94.7973 55.4377 94.9324 55.5902C95.0678 55.7425 95.2308 55.8627 95.4219 55.9507C95.613 56.0388 95.8236 56.0839 96.0553 56.0839C96.2916 56.0839 96.5063 56.0409 96.6995 55.955C96.8927 55.8693 97.0581 55.7511 97.1932 55.6009C97.3286 55.4484 97.4317 55.2701 97.5045 55.0641C97.5775 54.858 97.6142 54.6346 97.6142 54.3921C97.6142 54.1601 97.5797 53.9412 97.5088 53.7308C97.4381 53.5226 97.335 53.3401 97.1997 53.1833C97.0645 53.0265 96.9013 52.902 96.7102 52.8097C96.5191 52.7174 96.3002 52.67 96.0553 52.67C95.8191 52.67 95.6066 52.7152 95.4155 52.8054C95.2244 52.8956 95.0612 53.0201 94.9281 53.1769C94.7951 53.3337 94.6921 53.5159 94.619 53.7244C94.546 53.9347 94.5096 54.1537 94.5096 54.3857ZM102.664 57.1595C102.664 57.2711 102.632 57.357 102.565 57.4194C102.498 57.4817 102.408 57.5138 102.297 57.5138H101.266C101.03 57.5138 100.912 57.3958 100.912 57.1595V48.3095C100.912 48.2022 100.944 48.1141 101.006 48.0454C101.069 47.9768 101.154 47.9423 101.266 47.9423H102.297C102.378 47.9423 102.46 47.9747 102.542 48.0411C102.623 48.1077 102.664 48.1979 102.664 48.3095V57.1595Z" fill="#00D0BE" fill-opacity="0.702"/>
<path d="M11.2074 26.0689L16.4932 12.6771C16.5405 12.5657 16.5934 12.459 16.6491 12.3603C16.71 12.2534 16.7733 12.1555 16.8372 12.067C16.9051 11.9764 16.9784 11.8905 17.057 11.8102C17.1332 11.7324 17.2159 11.6579 17.3037 11.5902C17.4094 11.5118 17.5178 11.4441 17.6302 11.3867C17.741 11.3303 17.8571 11.2823 17.9738 11.2455C18.0897 11.2076 18.2116 11.1774 18.3388 11.1583C18.4637 11.1388 18.595 11.1285 18.7293 11.1285H20.466L20.6618 11.1405L20.8516 11.169L21.0446 11.2153L21.2309 11.2811C21.3134 11.3132 21.3967 11.355 21.4753 11.4C21.5538 11.4454 21.6306 11.4972 21.7026 11.5542C21.7748 11.6099 21.8434 11.6724 21.9061 11.7382C21.9712 11.8059 22.0321 11.8804 22.0844 11.9543C22.1388 12.034 22.1867 12.1163 22.2289 12.2003C22.2694 12.2825 22.3059 12.3697 22.3339 12.4565C22.3926 12.6424 22.4224 12.8294 22.4224 13.0185L22.4102 13.2233L22.3755 13.4193L22.3275 13.6008L22.2549 13.7912L12.7583 35.0693L12.648 35.2604L12.512 35.4519C12.4623 35.5151 12.4055 35.5765 12.3456 35.6327C12.2682 35.7036 12.1868 35.7687 12.1011 35.8244C12.0133 35.8801 11.9201 35.9293 11.8222 35.9673C11.7308 36.0045 11.6299 36.0362 11.5238 36.0564C11.4289 36.0748 11.3293 36.0861 11.2261 36.0868L11.1757 36.0894C11.0556 36.0874 10.9425 36.0742 10.8398 36.0525C10.7325 36.0305 10.6312 35.9977 10.538 35.9578C10.4425 35.9148 10.3544 35.8655 10.2767 35.813C10.1886 35.7522 10.11 35.6884 10.0421 35.6239L9.88274 35.4486L9.74436 35.2572L9.63661 35.0689L0.230918 13.9056C0.128952 13.719 0.0996043 13.6357 0.0537626 13.4238C0.0274143 13.2398 0.00642641 13.0912 0 12.9035C0 12.622 0.0544065 12.3654 0.162156 12.1383C0.269477 11.9126 0.430134 11.7172 0.641135 11.5578C0.728962 11.4916 0.825146 11.4334 0.926683 11.3847C1.02672 11.3372 1.1334 11.2963 1.24651 11.2646C1.35747 11.2348 1.47229 11.2114 1.59075 11.1969C1.70556 11.1817 1.82509 11.1742 1.94827 11.1742H3.71017C3.82392 11.1742 3.9411 11.1836 4.05656 11.1994C4.17673 11.2166 4.29284 11.2425 4.4023 11.2734C4.51969 11.3089 4.6298 11.3524 4.73412 11.4017C4.84144 11.4524 4.94341 11.5105 5.03895 11.5743C5.1332 11.6382 5.22596 11.7097 5.31207 11.7881C5.3999 11.8678 5.48087 11.9524 5.55049 12.0398C5.62396 12.1308 5.69423 12.2287 5.75699 12.3337C5.81847 12.4331 5.87417 12.5404 5.92172 12.6512L11.2074 26.0689Z" fill="#00D0BE"/>
<path d="M86.7028 4.56026C86.7028 4.34841 86.7103 4.1179 86.7236 3.87606L86.7773 3.17366L86.8521 2.48689L86.9408 1.82925C86.968 1.58354 87.0275 1.35755 87.1173 1.15769C87.2109 0.951183 87.3362 0.770819 87.4952 0.620227C87.6597 0.463851 87.8546 0.34368 88.0731 0.264421C88.2852 0.187946 88.5206 0.147461 88.7774 0.147461H90.1979C90.4492 0.147461 90.6878 0.19223 90.9054 0.274703C91.1295 0.360602 91.3296 0.48784 91.4967 0.649357C91.665 0.81323 91.7994 1.0101 91.8891 1.23417C91.9746 1.44752 92.0221 1.68616 92.0221 1.94064V33.6117C92.0221 33.8859 91.9759 34.1434 91.8885 34.3745C91.7994 34.6119 91.665 34.8227 91.4917 34.9992C91.3182 35.1753 91.1081 35.3138 90.8694 35.4055C90.6396 35.4942 90.3828 35.5418 90.1069 35.5418H88.8231C88.5427 35.5418 88.2858 35.4987 88.056 35.4152C87.8199 35.3291 87.6136 35.198 87.4401 35.0257C87.273 34.8599 87.1413 34.6607 87.0496 34.4302C86.9603 34.2068 86.9058 33.9542 86.8887 33.6751L86.8495 33.1181C86.5787 33.3866 86.2913 33.6372 85.9914 33.8688C85.5115 34.2391 84.9981 34.5637 84.4634 34.8398C83.6721 35.2481 82.8214 35.5587 81.9485 35.7676C81.0561 35.9809 80.1433 36.0886 79.2464 36.0886C77.5779 36.0886 76.0159 35.7581 74.6057 35.1626C73.1289 34.5384 71.8201 33.622 70.7319 32.4877C69.6255 31.335 68.7457 29.9566 68.1476 28.4335C67.5628 26.9437 67.2451 25.3131 67.2451 23.6167C67.2451 21.9274 67.5647 20.2987 68.1521 18.8089C68.7521 17.286 69.6357 15.9029 70.7447 14.7466C71.8346 13.6097 73.1454 12.6875 74.6203 12.0603C76.0272 11.4622 77.5863 11.1291 79.2464 11.1291C80.1466 11.1291 81.0606 11.2412 81.9505 11.4609C82.8289 11.6773 83.6834 12.0001 84.4767 12.421C84.9874 12.6927 85.4779 13.0091 85.9361 13.3655C86.2026 13.5737 86.459 13.7965 86.7028 14.0326V4.56026ZM72.5632 23.6092C72.5632 24.5884 72.7536 25.5264 73.0998 26.3796C73.4582 27.2626 73.9847 28.0602 74.6374 28.7242C75.2841 29.3818 76.0596 29.9148 76.9248 30.2768C77.7521 30.6236 78.6668 30.816 79.6333 30.816C80.6048 30.816 81.5282 30.6204 82.3662 30.2698C83.2398 29.9039 84.0273 29.3647 84.6862 28.6981C85.3513 28.0259 85.8856 27.2241 86.2502 26.3372C86.6002 25.4834 86.7945 24.544 86.7945 23.5636C86.7945 22.5857 86.6027 21.6564 86.2559 20.8141C85.895 19.9387 85.3639 19.1499 84.7057 18.4916C84.0474 17.8334 83.2589 17.3017 82.3827 16.9416C81.5402 16.5948 80.6112 16.4031 79.6333 16.4031C78.6694 16.4031 77.7566 16.5961 76.9293 16.9429C76.0634 17.3062 75.2873 17.8392 74.6404 18.4968C73.9866 19.1621 73.4601 19.9596 73.1011 20.8426C72.7543 21.6958 72.5632 22.6326 72.5632 23.6092Z" fill="#00D0BE"/>
<path d="M45.3907 13.4698C45.3907 13.2147 45.4374 12.9767 45.5235 12.7629C45.6135 12.5388 45.7476 12.342 45.9153 12.1785C46.0831 12.0159 46.2844 11.888 46.5059 11.8039C46.7248 11.7216 46.9635 11.6766 47.2147 11.6766H48.6346C48.8914 11.6766 49.1264 11.7171 49.3385 11.7938C49.558 11.8735 49.7523 11.9939 49.9168 12.15C50.0777 12.3032 50.2049 12.4868 50.2979 12.6956C50.3892 12.9002 50.4479 13.1311 50.4734 13.3837L50.4909 13.5368C50.6822 13.3558 50.884 13.1832 51.0935 13.0197C51.4639 12.7312 51.8619 12.4698 52.274 12.2432C52.9229 11.8868 53.6191 11.6064 54.3247 11.4172C55.0241 11.2298 55.737 11.1291 56.4274 11.1291C57.7978 11.1291 59.0593 11.3969 60.186 11.8786C61.3753 12.3874 62.4128 13.135 63.2703 14.0591C64.1496 15.0066 64.84 16.1428 65.3079 17.3961C65.7725 18.6405 66.0206 20.0001 66.0206 21.4064V33.6117C66.0206 33.8745 65.9756 34.129 65.8895 34.3606C65.804 34.5953 65.6731 34.8074 65.506 34.9839C65.3357 35.1632 65.1301 35.3061 64.8957 35.4012C64.6729 35.4916 64.4217 35.5417 64.1513 35.5417H62.5261C62.2166 35.5417 61.9488 35.4974 61.7183 35.4093C61.4784 35.3183 61.2804 35.1778 61.1189 34.991C60.9658 34.8145 60.8595 34.6093 60.7935 34.3771C60.7297 34.1556 60.7019 33.9073 60.7019 33.6346V21.4368C60.7019 20.6412 60.5607 19.9348 60.312 19.326C60.0455 18.6722 59.6537 18.1227 59.1803 17.6866C58.8618 17.3936 58.5029 17.1472 58.1193 16.9516C57.7251 16.7518 57.3016 16.6029 56.8661 16.5106C56.4287 16.4176 55.978 16.3795 55.5325 16.3979C55.0907 16.4157 54.6488 16.4889 54.2236 16.6187C53.5647 16.8195 52.9362 17.1588 52.3893 17.6384C51.881 18.0865 51.4397 18.6593 51.11 19.3587C51.0455 19.4976 50.9866 19.6424 50.9359 19.7919C50.8872 19.9367 50.8442 20.0892 50.8099 20.2475C50.7758 20.4058 50.7499 20.5646 50.7334 20.7203C50.7176 20.8722 50.7094 21.0369 50.7094 21.2089V33.7486C50.7094 34.008 50.6638 34.2492 50.5796 34.4625C50.4896 34.6872 50.3581 34.8835 50.1904 35.0454C50.0252 35.2074 49.8264 35.3333 49.6036 35.4158C49.3839 35.4987 49.1416 35.5417 48.8852 35.5417H47.2604C46.0102 35.5417 45.3907 34.9434 45.3907 33.7486V13.4698Z" fill="#00D0BE"/>
<path d="M29.8242 8.3809C29.6715 8.25922 29.5316 8.11248 29.4056 7.94154C29.2842 7.77574 29.1728 7.58274 29.0759 7.36874C28.5633 6.34137 28.0854 5.18054 27.6157 4.04199C27.3607 3.42291 27.1075 2.80898 26.8404 2.19869L26.7187 1.8538C26.6435 1.58025 26.6189 1.33862 26.6491 1.12526C26.6821 0.893485 26.7738 0.694264 26.9295 0.523322C27.07 0.366303 27.2448 0.257488 27.4498 0.191082C27.6429 0.12896 27.8626 0.101746 28.1094 0.101746H29.9324C30.2021 0.101746 30.4411 0.149305 30.6538 0.234562C30.8659 0.318748 31.0508 0.442348 31.2147 0.591655C31.3513 0.715042 31.4698 0.858133 31.5754 1.0113C31.6754 1.15375 31.7667 1.31077 31.8547 1.47208C32.4078 2.48166 33.1351 4.31726 33.6612 5.64453L33.8992 6.24262L34.0256 6.60421C34.0883 6.82506 34.2091 7.13824 34.2091 7.36295C34.2091 7.62194 34.1644 7.84408 34.0796 8.03323C33.9902 8.23138 33.8578 8.38904 33.6878 8.51435C33.5421 8.62124 33.3795 8.69215 33.2034 8.73521C33.0318 8.77569 32.8534 8.79218 32.6662 8.79218H31.0032C30.7869 8.79218 30.5774 8.75684 30.3786 8.68787C30.1811 8.61953 29.9956 8.51564 29.8242 8.3809Z" fill="#00D0BE"/>
<path d="M32.5202 30.816C32.9613 30.816 33.3994 30.7761 33.8248 30.6994C34.2558 30.6223 34.6819 30.5058 35.0912 30.3533C35.4939 30.2033 35.8851 30.0165 36.254 29.7969C36.6136 29.5823 36.9521 29.3355 37.2584 29.0609L37.3947 28.9499C37.5352 28.8475 37.7035 28.7537 37.8807 28.6835C38.0478 28.6171 38.2282 28.5684 38.4062 28.5487C38.6472 28.5222 38.8942 28.5419 39.1225 28.6254C39.3333 28.7019 39.5301 28.833 39.6959 29.0279L39.7043 29.0373C39.9828 29.4 40.2403 29.7779 40.4967 30.1545C40.6796 30.4255 40.8651 30.6964 41.0633 30.9691L41.074 30.985C41.2531 31.2718 41.3201 31.5529 41.3088 31.8217C41.2968 32.0869 41.2068 32.3358 41.0721 32.5635C40.974 32.7306 40.8499 32.8808 40.722 33.0149C40.5909 33.1515 40.4663 33.2636 40.3549 33.3617L40.3037 33.4015C39.7137 33.8396 39.1024 34.2314 38.4719 34.5688C37.8541 34.8997 37.2156 35.1821 36.5584 35.4093C35.9204 35.6296 35.2622 35.7999 34.5887 35.9145C33.9133 36.0291 33.2229 36.0886 32.5202 36.0886C30.8309 36.0886 29.2175 35.7525 27.7471 35.1454C26.2223 34.515 24.8501 33.5896 23.7045 32.4421C22.5593 31.2952 21.6352 29.921 21.006 28.3943C20.3991 26.922 20.0637 25.3075 20.0637 23.6167C20.0637 21.9325 20.4011 20.3197 21.0099 18.8468C21.6416 17.3188 22.5689 15.9416 23.7171 14.7902C24.8647 13.6395 26.2376 12.7096 27.761 12.0768C29.2282 11.4671 30.8365 11.1291 32.5202 11.1291C34.1641 11.1291 35.7174 11.4367 37.1237 12.0001C38.5743 12.5812 39.8695 13.4364 40.9474 14.5092C42.0221 15.5787 42.8824 16.8664 43.4665 18.3125C44.0306 19.7088 44.3395 21.2539 44.3395 22.8952L44.3375 23.0927C44.3457 24.0357 44.3534 25.0181 43.1956 25.6168C43.0229 25.7061 42.8393 25.7745 42.6525 25.8246C42.4728 25.8726 42.283 25.9068 42.0936 25.9283C41.9253 25.9473 41.7563 25.9593 41.5924 25.9651L41.1335 25.9726H25.714C25.9134 26.5454 26.1831 27.0848 26.5102 27.579C26.9097 28.1822 27.4003 28.7229 27.9579 29.1792C28.5933 29.7014 29.3201 30.1159 30.1024 30.397C30.8601 30.6686 31.6758 30.816 32.5202 30.816ZM38.9473 21.2008C38.7954 20.6355 38.5688 20.1051 38.2802 19.6197C37.9244 19.0216 37.4743 18.4886 36.9534 18.0392C36.3534 17.5195 35.6533 17.1061 34.8924 16.825C34.1512 16.5517 33.3488 16.403 32.5202 16.403C31.6835 16.403 30.8721 16.5504 30.1163 16.822C29.337 17.1018 28.6098 17.5163 27.9718 18.0373C27.4179 18.4893 26.9286 19.0246 26.5287 19.6229C26.2039 20.1083 25.9368 20.6387 25.7387 21.2008H38.9473Z" fill="#00D0BE"/>
<path d="M111.901 25.5433L117.06 12.982C117.104 12.873 117.152 12.7676 117.204 12.669C117.254 12.5729 117.311 12.4792 117.372 12.3906C117.438 12.2963 117.51 12.2072 117.586 12.1256C117.659 12.0472 117.738 11.9722 117.824 11.9045C117.918 11.8293 118.02 11.7616 118.125 11.7034C118.227 11.6474 118.336 11.5986 118.451 11.5585C118.566 11.5193 118.688 11.4889 118.815 11.4688C118.941 11.4489 119.071 11.4382 119.201 11.4382H120.887L121.075 11.4487L121.266 11.4771C121.331 11.4902 121.395 11.5073 121.454 11.5256L121.631 11.5915C121.711 11.6256 121.79 11.6665 121.863 11.7113C121.94 11.7584 122.013 11.8105 122.081 11.8668C122.147 11.9212 122.211 11.9829 122.272 12.0512C122.332 12.1168 122.388 12.1881 122.437 12.2627C122.486 12.3366 122.53 12.415 122.568 12.4962C122.606 12.5778 122.64 12.6613 122.665 12.7449C122.69 12.8314 122.71 12.9199 122.723 13.0068C122.736 13.0936 122.743 13.1814 122.743 13.2675C122.743 13.3858 122.729 13.5105 122.703 13.6373L122.658 13.8123L122.592 13.9927L110.264 43.2247C110.221 43.3275 110.17 43.4254 110.114 43.5158C110.056 43.6092 109.991 43.697 109.921 43.7769C109.85 43.8581 109.771 43.9344 109.688 44.0038C109.604 44.0749 109.512 44.1394 109.419 44.1957C109.33 44.2497 109.234 44.299 109.137 44.3403C109.038 44.3823 108.936 44.4181 108.833 44.4455C108.728 44.4723 108.621 44.4937 108.512 44.5076C108.405 44.5215 108.298 44.529 108.196 44.529H106.943C106.855 44.529 106.767 44.5256 106.679 44.5187C106.595 44.5121 106.509 44.5014 106.424 44.4879C106.343 44.4746 106.263 44.4568 106.186 44.4359C106.107 44.4142 106.031 44.3883 105.959 44.3598C105.887 44.3309 105.816 44.297 105.748 44.2585C105.68 44.2214 105.615 44.1779 105.555 44.1321C105.492 44.0839 105.434 44.0316 105.382 43.977C105.328 43.9209 105.279 43.8611 105.236 43.7988C105.189 43.7313 105.148 43.6613 105.114 43.5906C105.08 43.5195 105.05 43.4455 105.028 43.3716C105.006 43.296 104.988 43.2172 104.977 43.1388C104.966 43.0582 104.96 42.976 104.96 42.8944C104.96 42.8258 104.965 42.7511 104.974 42.6726C104.982 42.5987 104.996 42.5212 105.014 42.4407L105.077 42.2108C105.1 42.1352 105.13 42.0534 105.164 41.9683L109.03 32.5757L101.262 14.0488C101.203 13.9239 101.177 13.8706 101.136 13.7435C101.086 13.5158 101.078 13.3352 101.061 13.1047C101.061 12.5551 101.219 12.138 101.536 11.8557C101.847 11.5776 102.306 11.4382 102.91 11.4382H104.619C104.736 11.4382 104.851 11.4472 104.964 11.4639C105.079 11.4808 105.191 11.5069 105.298 11.5401C105.41 11.5765 105.518 11.6205 105.618 11.6704C105.719 11.7203 105.817 11.7796 105.911 11.8467C106.002 11.9116 106.089 11.984 106.17 12.0617C106.249 12.1389 106.324 12.223 106.392 12.3115C106.462 12.4015 106.526 12.4972 106.583 12.5964C106.64 12.6965 106.692 12.8023 106.736 12.9115L111.901 25.5433ZM93.9758 1.941C93.9754 1.80776 93.9876 1.67687 94.0105 1.55241C94.0345 1.4226 94.0709 1.29793 94.1176 1.17968C94.1667 1.05758 94.2271 0.943401 94.2971 0.839293C94.3693 0.733043 94.4518 0.63429 94.5437 0.54432C94.6358 0.45585 94.7356 0.377229 94.8419 0.309752C94.9477 0.242917 95.0621 0.184866 95.1818 0.13881C95.3009 0.0940394 95.4269 0.0589171 95.5563 0.0353536C95.6846 0.0124328 95.815 0 95.9449 0H97.3651C97.4988 0 97.6292 0.0111441 97.7543 0.0319229C97.8831 0.05313 98.0052 0.085265 98.1193 0.125966C98.2391 0.169665 98.3509 0.223856 98.4541 0.286835C98.5615 0.353241 98.66 0.429069 98.7485 0.512826C98.8346 0.595299 98.9119 0.685913 98.9796 0.782738C99.0473 0.879562 99.1069 0.984959 99.1576 1.09721C99.2063 1.20389 99.2472 1.31913 99.2787 1.4393C99.3093 1.55626 99.3324 1.6803 99.3464 1.8099C99.4406 2.50588 99.5122 3.15751 99.5666 3.85799L99.5805 4.22387L99.5861 4.56062L99.5921 17.2239C99.7551 19.4716 100.353 21.1718 100.79 22.4125L100.804 22.4535C101.029 23.0933 101.218 23.6321 101.304 24.1172C101.352 24.3878 101.367 24.6408 101.342 24.8809C101.315 25.126 101.245 25.3578 101.121 25.5795L101.061 25.705C101.031 25.771 101.004 25.8305 100.971 25.8903C100.937 25.9524 100.897 26.0113 100.846 26.0707C100.795 26.1317 100.734 26.1891 100.66 26.2425C100.587 26.2949 100.5 26.3459 100.395 26.3958L100.187 26.4822L99.5844 26.6745C99.2138 26.7943 98.7686 26.9382 98.4496 26.944C98.1183 26.9438 97.7972 26.8722 97.4883 26.7352C97.1774 26.5985 96.8799 26.3948 96.6003 26.1311C96.3343 25.8813 96.0813 25.5733 95.8474 25.2157C95.6145 24.8606 95.3988 24.4533 95.2047 24.0024C95.0267 23.5881 94.8614 23.1252 94.7138 22.6201C94.5715 22.1317 94.446 21.6058 94.3421 21.0488C94.2418 20.5097 94.1607 19.9379 94.1013 19.3407C94.0446 18.7636 94.0077 18.1602 93.9944 17.537L93.9758 1.941Z" fill="#00D0BE" fill-opacity="0.702"/>
<path fill-rule="evenodd" clip-rule="evenodd" d="M96.4595 28.8979C96.683 28.8979 96.9008 28.9202 97.1118 28.9627C97.3252 29.0057 97.5302 29.0702 97.7255 29.1535C97.9275 29.2353 98.1218 29.338 98.3026 29.4571C98.4852 29.5774 98.6542 29.7148 98.8043 29.8651C98.9536 30.0142 99.0899 30.1815 99.2102 30.3617C99.3304 30.5405 99.4362 30.7353 99.5251 30.9411L99.5269 30.9445C99.6059 31.1427 99.6685 31.3505 99.71 31.566C99.7499 31.7742 99.7715 31.9893 99.7715 32.2099C99.7715 32.4258 99.7496 32.6388 99.7096 32.8459C99.6685 33.0595 99.6059 33.2668 99.5269 33.4646L99.5258 33.4682C99.438 33.6717 99.3317 33.8668 99.2102 34.0483C99.0899 34.2284 98.9536 34.3953 98.8043 34.5444C98.6554 34.6933 98.4886 34.8297 98.3086 34.9501C98.1272 35.0718 97.9325 35.1781 97.7283 35.2659L97.7249 35.267C97.5267 35.346 97.319 35.4083 97.1035 35.4501C96.8952 35.4899 96.6802 35.5116 96.4595 35.5116C96.247 35.5116 96.0324 35.4897 95.8231 35.449C95.6098 35.4075 95.4009 35.3454 95.2045 35.267C95.0024 35.1826 94.8088 35.0789 94.6284 34.9576C94.4487 34.8377 94.2795 34.6989 94.125 34.5444C93.9757 34.3953 93.8395 34.2284 93.7191 34.0483C93.5976 33.8668 93.4914 33.6721 93.4036 33.4682L93.4025 33.4646C93.3235 33.2668 93.2611 33.0595 93.2198 32.8468C93.1799 32.6388 93.1579 32.4258 93.1579 32.2099C93.1579 31.9931 93.1799 31.777 93.2204 31.5664C93.2618 31.3509 93.3235 31.1421 93.4025 30.9445L93.4044 30.9411C93.4931 30.7353 93.5989 30.5405 93.7191 30.3617C93.8395 30.1815 93.9757 30.0142 94.125 29.8651C94.2767 29.7141 94.4457 29.5768 94.6272 29.4566C94.8069 29.3388 94.9995 29.2366 95.2017 29.1544C95.3964 29.0712 95.6035 29.0066 95.8148 28.9637C96.0275 28.9207 96.2453 28.8979 96.4595 28.8979Z" fill="#00D0BE"/>
</svg>
