<svg width="19" height="16" viewBox="0 0 19 16" fill="none" xmlns="http://www.w3.org/2000/svg">
<path fill-rule="evenodd" clip-rule="evenodd" d="M6.33133 12.1037L8.32031 15.5486C8.48607 15.8357 8.77066 16 9.10215 16C9.43367 16 9.71826 15.8356 9.88391 15.5484L18.0742 1.35383C18.2398 1.06675 18.2397 0.738226 18.074 0.451216C17.9083 0.164243 17.6238 0 17.2923 0H13.3155C12.984 0 12.6994 0.164352 12.5337 0.451542L6.33119 11.2011C6.1656 11.4882 6.16564 11.8167 6.33133 12.1037Z" fill="#00D0BE"/>
<path opacity="0.702" fill-rule="evenodd" clip-rule="evenodd" d="M7.56554 3.73804L8.09052 4.64735C8.25624 4.93435 8.25628 5.26288 8.09062 5.54989L6.10088 8.99744C5.93519 9.28452 5.65061 9.44887 5.31912 9.44887C4.98767 9.44891 4.70305 9.28463 4.53732 8.99755L3.23144 6.73575L0.124322 1.35401C-0.0414408 1.06697 -0.0414408 0.738371 0.124322 0.451325C0.29005 0.164279 0.574598 0 0.906016 0H4.88622C5.21763 0 5.50222 0.164279 5.66795 0.451325L7.56554 3.73804Z" fill="#00D0BE"/>
</svg>
