<svg width="231" height="120" viewBox="0 0 231 120" fill="none" xmlns="http://www.w3.org/2000/svg">
<g opacity="0.4">
<path d="M65.7813 67.9383C52.8783 63.6156 37.0647 58.6847 25.1175 60.7917C-15.6113 67.96 -9.09471 113.185 -9.07299 113.294C-9.09471 113.164 -9.09471 113.098 -9.09471 113.077" stroke="#00D0BE" stroke-width="0.298244" stroke-linecap="round" stroke-linejoin="round"/>
<path d="M112.332 76.3663C104.055 76.4097 95.8011 75.6929 87.8508 74.2375" stroke="#00D0BE" stroke-width="0.298244" stroke-linecap="round" stroke-linejoin="round"/>
<path d="M-33.5754 80.9282C-30.3823 70.2627 -25.1907 60.9656 -18.1311 53.276C-9.29017 43.6532 2.5049 36.55 16.9501 32.1405C35.5659 26.471 57.1793 33.7045 74.557 39.526C81.3343 41.8068 87.7423 43.9355 92.8035 44.8696C104.533 47.0201 117.111 47.107 129.188 45.1303C143.307 42.8277 156.601 37.8099 168.657 30.2289C182.516 21.5184 194.571 9.5278 204.498 -5.46043C215.729 -22.4036 224.309 -43.322 230 -67.5855" stroke="#00D0BE" stroke-width="0.298244" stroke-linecap="round" stroke-linejoin="round"/>
<path d="M-102 72.2393C-99.6323 58.4457 -95.1575 45.4125 -88.8799 33.5088C-82.6022 21.6051 -74.5433 10.831 -65.0725 1.49049C-55.5799 -7.82827 -44.6538 -15.6917 -32.6414 -21.7521C-20.6291 -27.8126 -7.53074 -32.0701 6.30622 -34.1989" stroke="#00D0BE" stroke-width="0.298244" stroke-linecap="round" stroke-linejoin="round"/>
<path d="M-90.1181 108.298C-90.1181 108.298 -96.7433 19.5415 -19.9993 -12.6072C36.2391 -36.1756 70.1907 -18.7979 92.2169 -15.431C125.995 -10.2612 194.18 5.05287 170.894 -177" stroke="#00D0BE" stroke-width="0.301285" stroke-linecap="round" stroke-linejoin="round"/>
<path d="M-78.171 112.425C-78.7357 100.934 -77.8017 89.313 -75.4774 78.1044C-73.1532 66.8958 -69.4387 56.1 -64.4643 46.3033C-59.49 36.5067 -53.2558 27.6875 -45.8703 20.4323C-38.463 13.1555 -29.7959 7.11672 -20.2817 2.35959C-10.7674 -2.37582 -0.427697 -5.82963 10.303 -7.8715" stroke="#00D0BE" stroke-width="0.298244" stroke-linecap="round" stroke-linejoin="round"/>
<path d="M8.3479 92.4409C9.58606 88.7482 11.7365 85.2726 15.0166 82.0361C18.2749 78.8429 21.6853 76.7576 25.2694 75.5412C28.8535 74.3247 32.6114 73.9337 36.5214 74.1292C40.4314 74.3247 44.5151 75.1067 48.7509 76.2145C52.9867 77.3224 57.3746 78.7343 61.9145 80.1897C67.4319 81.9709 73.1231 83.7955 79.0098 85.2726C84.9182 86.728 91.0221 87.8141 97.3649 88.0965" stroke="#00D0BE" stroke-width="0.298244" stroke-linecap="round" stroke-linejoin="round"/>
<path d="M11.2328 65.1327L11.2333 65.1331C11.5581 65.4006 11.6134 65.8972 11.3489 66.2184C11.0826 66.5417 10.6082 66.5994 10.2641 66.3126L10.2636 66.3122C9.9388 66.0447 9.88359 65.5481 10.1481 65.2269C10.4144 64.9036 10.8887 64.8459 11.2328 65.1327Z" fill="white" stroke="#00D0BE" stroke-width="0.217221"/>
<path d="M16.8806 62.7431L16.881 62.7435C17.2058 63.0109 17.2611 63.5076 16.9966 63.8287C16.7303 64.1521 16.2559 64.2097 15.9118 63.9229L15.9113 63.9225C15.5865 63.6551 15.5313 63.1584 15.7958 62.8373C16.0621 62.5139 16.5364 62.4563 16.8806 62.7431Z" fill="white" stroke="#00D0BE" stroke-width="0.217221"/>
<path d="M14.0566 63.8295L14.0571 63.8299C14.3819 64.0974 14.4371 64.594 14.1726 64.9152C13.9063 65.2385 13.432 65.2962 13.0878 65.0094L13.0873 65.009C12.7625 64.7415 12.7073 64.2449 12.9718 63.9237C13.2381 63.6003 13.7124 63.5427 14.0566 63.8295Z" fill="white" stroke="#00D0BE" stroke-width="0.217221"/>
<path d="M48.2746 63.4221L48.2746 63.422L48.2709 63.4229C47.8547 63.5175 47.4543 63.2539 47.3582 62.8313C47.2624 62.4096 47.5322 61.9941 47.9243 61.9194L47.9243 61.9195L47.928 61.9186C48.3443 61.824 48.7447 62.0876 48.8407 62.5102C48.9366 62.9319 48.6667 63.3474 48.2746 63.4221Z" fill="white" stroke="#00D0BE" stroke-width="0.217221"/>
<path d="M54.3567 64.9426L54.3567 64.9425L54.3529 64.9434C53.9367 65.038 53.5363 64.7744 53.4402 64.3518C53.3444 63.9301 53.6143 63.5146 54.0063 63.4399L54.0063 63.44L54.0101 63.4391C54.4263 63.3445 54.8267 63.6081 54.9227 64.0307C55.0186 64.4524 54.7487 64.8679 54.3567 64.9426Z" fill="white" stroke="#00D0BE" stroke-width="0.217221"/>
<path d="M51.3157 64.0734L51.3156 64.0734L51.3119 64.0742C50.8957 64.1688 50.4953 63.9053 50.3992 63.4827C50.3034 63.061 50.5733 62.6455 50.9653 62.5708L50.9653 62.5709L50.969 62.57C51.3853 62.4754 51.7857 62.7389 51.8817 63.1615C51.9776 63.5832 51.7077 63.9988 51.3157 64.0734Z" fill="white" stroke="#00D0BE" stroke-width="0.217221"/>
<path d="M44.3182 31.4864L44.3183 31.4865L44.319 31.481C44.3759 31.0449 44.7726 30.759 45.2132 30.8354C45.6337 30.9121 45.918 31.3131 45.8422 31.73L45.8421 31.7308C45.765 32.174 45.3631 32.4566 44.9476 32.3811C44.5269 32.3046 44.2423 31.9035 44.3182 31.4864Z" fill="white" stroke="#00D0BE" stroke-width="0.217221"/>
<path d="M37.584 30.6173L37.5842 30.6173L37.5849 30.6119C37.6418 30.1758 38.0385 29.8898 38.4791 29.9662C38.8996 30.0429 39.1839 30.4439 39.1081 30.8608L39.1079 30.8616C39.0308 31.3049 38.629 31.5875 38.2134 31.5119C37.7927 31.4354 37.5082 31.0343 37.584 30.6173Z" fill="white" stroke="#00D0BE" stroke-width="0.217221"/>
<path d="M41.0599 30.8346L41.06 30.8346L41.0607 30.8292C41.1176 30.3931 41.5143 30.1071 41.9549 30.1835C42.3754 30.2602 42.6597 30.6612 42.5839 31.0781L42.5838 31.0789C42.5067 31.5222 42.1048 31.8048 41.6893 31.7292C41.2686 31.6527 40.984 31.2516 41.0599 30.8346Z" fill="white" stroke="#00D0BE" stroke-width="0.217221"/>
<path d="M133.995 45.3918C133.58 45.4485 133.198 45.1461 133.14 44.7245C133.084 44.3109 133.384 43.9259 133.81 43.8473C134.224 43.7921 134.605 44.094 134.663 44.5146C134.72 44.9538 134.415 45.3346 133.995 45.3918Z" fill="white" stroke="#00D0BE" stroke-width="0.217221"/>
<path d="M127.262 46.4778C126.846 46.5344 126.464 46.2321 126.406 45.8105C126.35 45.3968 126.651 45.0118 127.076 44.9332C127.491 44.8781 127.871 45.1799 127.929 45.6006C127.986 46.0398 127.681 46.4206 127.262 46.4778Z" fill="white" stroke="#00D0BE" stroke-width="0.217221"/>
<path d="M130.737 45.8264C130.322 45.8831 129.94 45.5807 129.882 45.1591C129.826 44.7454 130.126 44.3604 130.552 44.2818C130.966 44.2267 131.347 44.5285 131.405 44.9492C131.462 45.3884 131.157 45.7692 130.737 45.8264Z" fill="white" stroke="#00D0BE" stroke-width="0.217221"/>
<path d="M131.556 60.6611C117.936 62.8768 103.708 62.7899 90.4357 60.357C84.397 59.2492 77.5328 56.9467 70.2777 54.5138C54.7898 49.3222 31.9817 39.6125 10.5203 51.3207" stroke="#00D0BE" stroke-width="0.298244" stroke-linecap="round" stroke-linejoin="round"/>
<path d="M126.951 31.4019C139.245 29.4034 150.78 25.0373 161.272 18.4555" stroke="#00D0BE" stroke-width="0.298244" stroke-linecap="round" stroke-linejoin="round"/>
<path d="M-43.3506 66.5918C-32.0768 39.0482 -6.92268 11.8088 48.8379 17.9995C59.8292 19.216 69.9734 23.4518 79.0532 26.4711" stroke="#00D0BE" stroke-width="0.298244" stroke-linecap="round" stroke-linejoin="round"/>
<path d="M153.886 6.85596C164.378 0.274172 173.61 -8.97942 181.343 -20.6442C190.748 -34.8287 198.004 -52.7059 202.934 -73.7546" stroke="#00D0BE" stroke-width="0.298244" stroke-linecap="round" stroke-linejoin="round"/>
<path d="M50.2715 4.16223C66.3024 4.70528 97.3215 23.9728 124.67 17.8037" stroke="#00D0BE" stroke-width="0.298244" stroke-linecap="round" stroke-linejoin="round"/>
</g>
</svg>
