<svg width="18" height="12" viewBox="0 0 18 12" fill="none" xmlns="http://www.w3.org/2000/svg">
<path d="M0 0.893617C0 0.400086 0.352576 0 0.7875 0H17.2125C17.6474 0 18 0.400086 18 0.893617C18 1.38715 17.6474 1.78723 17.2125 1.78723H0.7875C0.352576 1.78723 0 1.38715 0 0.893617Z" fill="#00D0BE"/>
<path d="M0 11.1064C0 10.6129 0.352576 10.2128 0.7875 10.2128H17.2125C17.6474 10.2128 18 10.6129 18 11.1064C18 11.5999 17.6474 12 17.2125 12H0.7875C0.352576 12 0 11.5999 0 11.1064Z" fill="#00D0BE"/>
<path d="M0 6C0 5.50647 0.352576 5.10638 0.7875 5.10638H4.8375C5.27242 5.10638 5.625 5.50647 5.625 6C5.625 6.49353 5.27242 6.89362 4.8375 6.89362H0.7875C0.352576 6.89362 0 6.49353 0 6Z" fill="#00D0BE"/>
<path d="M7.875 6C7.875 5.50647 8.22758 5.10638 8.6625 5.10638H17.2125C17.6474 5.10638 18 5.50647 18 6C18 6.49353 17.6474 6.89362 17.2125 6.89362H8.6625C8.22758 6.89362 7.875 6.49353 7.875 6Z" fill="#00D0BE"/>
</svg>
